<?xml version="1.0" encoding="UTF-8"?>
<!DOCTYPE svg PUBLIC "-//W3C//DTD SVG 1.1//EN" "http://www.w3.org/Graphics/SVG/1.1/DTD/svg11.dtd">
<svg xmlns="http://www.w3.org/2000/svg" version="1.1" width="500px" height="500px" style="shape-rendering:geometricPrecision; text-rendering:geometricPrecision; image-rendering:optimizeQuality; fill-rule:evenodd; clip-rule:evenodd" xmlns:xlink="http://www.w3.org/1999/xlink">
<g><path style="opacity:0.004" fill="#fefffe" d="M 397.5,-0.5 C 397.833,-0.5 398.167,-0.5 398.5,-0.5C 398.315,0.170143 397.981,0.170143 397.5,-0.5 Z"/></g>
<g><path style="opacity:0.004" fill="#fefffe" d="M 287.5,11.5 C 288.833,12.1667 288.833,12.1667 287.5,11.5 Z"/></g>
<g><path style="opacity:0.004" fill="#fefffe" d="M 451.5,17.5 C 452.833,18.1667 452.833,18.1667 451.5,17.5 Z"/></g>
<g><path style="opacity:0.004" fill="#fefffe" d="M 75.5,24.5 C 76.8333,25.1667 76.8333,25.1667 75.5,24.5 Z"/></g>
<g><path style="opacity:0.004" fill="#fefffe" d="M 285.5,29.5 C 286.833,30.1667 286.833,30.1667 285.5,29.5 Z"/></g>
<g><path style="opacity:0.004" fill="#fefffe" d="M 360.5,33.5 C 361.833,34.1667 361.833,34.1667 360.5,33.5 Z"/></g>
<g><path style="opacity:0.004" fill="#fefffe" d="M 354.5,57.5 C 355.833,58.1667 355.833,58.1667 354.5,57.5 Z"/></g>
<g><path style="opacity:0.004" fill="#fefffe" d="M 35.5,63.5 C 36.8333,64.1667 36.8333,64.1667 35.5,63.5 Z"/></g>
<g><path style="opacity:0.004" fill="#fefffe" d="M 23.5,69.5 C 24.8333,70.1667 24.8333,70.1667 23.5,69.5 Z"/></g>
<g><path style="opacity:1" fill="#1b2223" d="M 280.5,72.5 C 281.469,73.3094 282.302,74.3094 283,75.5C 285.432,74.5504 287.932,74.5504 290.5,75.5C 290.833,75.5 291.167,75.5 291.5,75.5C 292.78,76.9313 294.447,77.5979 296.5,77.5C 298.553,77.4021 300.22,78.0687 301.5,79.5C 303.744,80.6116 303.744,82.1116 301.5,84C 303.464,84.624 305.131,84.124 306.5,82.5C 307.604,83.6313 307.271,84.4646 305.5,85C 306.91,85.3678 307.91,86.2011 308.5,87.5C 306.842,89.3229 305.009,90.9895 303,92.5C 302.347,95.8066 300.681,98.4733 298,100.5C 297.667,105.167 297.333,109.833 297,114.5C 295.172,115.752 293.339,115.752 291.5,114.5C 287.761,104.442 290.094,95.9415 298.5,89C 275.017,78.8889 250.684,76.3889 225.5,81.5C 231.433,86.0349 235.933,91.7016 239,98.5C 239.881,103.358 239.381,108.024 237.5,112.5C 230.93,118.989 222.93,122.156 213.5,122C 213,122.5 212.5,123 212,123.5C 211.284,126.418 211.784,129.085 213.5,131.5C 212.064,136.104 209.064,139.27 204.5,141C 191.057,143.433 182.224,151.267 178,164.5C 177.026,168.173 176.193,171.84 175.5,175.5C 173.504,177.333 171.171,177.833 168.5,177C 167.313,174.226 165.98,171.559 164.5,169C 153.477,166.849 148.977,171.349 151,182.5C 155.266,183.805 158.933,186.138 162,189.5C 163.009,191.025 163.509,192.692 163.5,194.5C 162.25,194.577 161.417,195.244 161,196.5C 160.342,194.892 160.842,193.725 162.5,193C 160.527,192.505 158.527,192.338 156.5,192.5C 157.788,196.434 159.121,200.434 160.5,204.5C 163.023,202.929 165.023,203.429 166.5,206C 164.957,207.878 163.124,209.378 161,210.5C 160.857,214.837 163.024,217.17 167.5,217.5C 167.215,219.288 167.548,220.955 168.5,222.5C 170.911,218.529 172.244,214.196 172.5,209.5C 175.073,209.852 177.406,209.352 179.5,208C 177.604,206.935 177.437,206.102 179,205.5C 180.61,207.489 182.443,207.822 184.5,206.5C 191.058,208.375 197.391,210.875 203.5,214C 204.464,215.725 205.131,217.559 205.5,219.5C 199.823,212.668 192.49,209.668 183.5,210.5C 180.483,210.768 177.483,211.102 174.5,211.5C 174.524,216.783 172.857,221.45 169.5,225.5C 165.425,231.146 165.592,236.813 170,242.5C 172.705,245.036 175.205,247.703 177.5,250.5C 177.5,251.167 177.5,251.833 177.5,252.5C 176.279,251.972 175.113,251.305 174,250.5C 173.667,250.833 173.333,251.167 173,251.5C 172.189,249.33 170.855,247.663 169,246.5C 167.941,246.63 167.108,247.13 166.5,248C 167.337,249.011 167.67,250.178 167.5,251.5C 170.248,251.402 170.914,252.402 169.5,254.5C 156.764,244.168 154.764,232.168 163.5,218.5C 156.481,214.659 150.148,209.825 144.5,204C 137.905,201.888 133.238,197.721 130.5,191.5C 132.564,191.762 133.897,192.929 134.5,195C 135.448,195.483 136.448,195.649 137.5,195.5C 137.662,193.473 137.495,191.473 137,189.5C 132.646,182.79 129.979,175.456 129,167.5C 128.667,168.167 128.333,168.833 128,169.5C 126.374,169.146 124.541,169.146 122.5,169.5C 133.981,124.514 161.314,93.3472 204.5,76C 229.715,68.2826 255.049,67.1159 280.5,72.5 Z"/></g>
<g><path style="opacity:1" fill="#717170" d="M 280.5,72.5 C 284.171,72.7571 287.505,73.7571 290.5,75.5C 287.932,74.5504 285.432,74.5504 283,75.5C 282.302,74.3094 281.469,73.3094 280.5,72.5 Z"/></g>
<g><path style="opacity:1" fill="#292b2d" d="M 151.5,87.5 C 151.611,86.8826 151.944,86.3826 152.5,86C 151.167,85.3333 149.833,84.6667 148.5,84C 151.416,83.9512 152.416,82.7845 151.5,80.5C 149.257,79.5258 146.924,79.1924 144.5,79.5C 149.149,78.1848 152.149,75.1848 153.5,70.5C 151.677,64.2552 147.677,62.2552 141.5,64.5C 138.765,70.0643 135.265,70.7309 131,66.5C 130.135,60.0015 132.969,55.8348 139.5,54C 155.501,51.6751 163.334,58.5084 163,74.5C 161.417,80.9111 157.584,85.2444 151.5,87.5 Z"/></g>
<g><path style="opacity:0.286" fill="#989896" d="M 291.5,75.5 C 293.553,75.4021 295.22,76.0687 296.5,77.5C 294.447,77.5979 292.78,76.9313 291.5,75.5 Z"/></g>
<g><path style="opacity:0.004" fill="#fefffe" d="M 400.5,80.5 C 401.833,81.1667 401.833,81.1667 400.5,80.5 Z"/></g>
<g><path style="opacity:1" fill="#282b2e" d="M 144.5,79.5 C 146.924,79.1924 149.257,79.5258 151.5,80.5C 152.416,82.7845 151.416,83.9512 148.5,84C 149.833,84.6667 151.167,85.3333 152.5,86C 151.944,86.3826 151.611,86.8826 151.5,87.5C 150.234,88.0899 148.901,88.5899 147.5,89C 127.833,89.6667 108.167,89.6667 88.5,89C 84.1279,86.805 83.4612,83.805 86.5,80C 105.83,79.5 125.164,79.3334 144.5,79.5 Z"/></g>
<g><path style="opacity:1" fill="#91bbbe" d="M 291.5,114.5 C 292.677,117.364 293.677,120.364 294.5,123.5C 294.308,125.857 293.142,127.524 291,128.5C 291.047,122.094 288.547,116.927 283.5,113C 276.416,112.525 274.749,115.358 278.5,121.5C 277.596,122.209 277.263,123.209 277.5,124.5C 274.167,125.167 270.833,125.833 267.5,126.5C 268.526,132.981 266.026,135.314 260,133.5C 260.019,135.107 260.185,136.774 260.5,138.5C 259.5,138.5 258.5,138.5 257.5,138.5C 257.769,140.429 257.269,142.095 256,143.5C 255.667,140.833 255.333,138.167 255,135.5C 253.883,136.949 253.216,138.616 253,140.5C 251.817,141.731 250.651,141.731 249.5,140.5C 253.654,136.78 252.988,134.114 247.5,132.5C 245.191,133.933 243.691,133.266 243,130.5C 239.05,135.114 237.716,134.447 239,128.5C 241.083,127.035 240.916,126.035 238.5,125.5C 236.803,125.899 235.137,126.399 233.5,127C 233.833,127.333 234.167,127.667 234.5,128C 231.776,128.27 229.109,128.77 226.5,129.5C 225.137,128.121 224.137,128.287 223.5,130C 223.905,130.945 224.572,131.612 225.5,132C 227.167,132.333 228.833,132.667 230.5,133C 231.573,134.594 232.573,136.094 233.5,137.5C 233.167,137.833 232.833,138.167 232.5,138.5C 230.57,136.545 228.403,134.879 226,133.5C 224.989,134.337 223.822,134.67 222.5,134.5C 222.5,133.5 222.5,132.5 222.5,131.5C 221.5,131.5 220.5,131.5 219.5,131.5C 219.5,130.5 219.5,129.5 219.5,128.5C 223.311,128.404 223.311,127.738 219.5,126.5C 221.347,125.17 222.847,125.503 224,127.5C 225.771,126.696 227.271,125.529 228.5,124C 228.167,123.667 227.833,123.333 227.5,123C 230.067,122.075 232.733,120.575 235.5,118.5C 236.386,117.675 236.719,116.675 236.5,115.5C 241.275,115.33 241.608,114.33 237.5,112.5C 239.381,108.024 239.881,103.358 239,98.5C 235.933,91.7016 231.433,86.0349 225.5,81.5C 250.684,76.3889 275.017,78.8889 298.5,89C 290.094,95.9415 287.761,104.442 291.5,114.5 Z"/></g>
<g><path style="opacity:0.004" fill="#fefffe" d="M 343.5,87.5 C 344.833,88.1667 344.833,88.1667 343.5,87.5 Z"/></g>
<g><path style="opacity:0.149" fill="#969795" d="M 384.5,88.5 C 371.962,89.2033 359.295,89.8699 346.5,90.5C 346.611,89.8826 346.944,89.3826 347.5,89C 359.829,88.5001 372.162,88.3335 384.5,88.5 Z"/></g>
<g><path style="opacity:1" fill="#739a74" d="M 225.5,110.5 C 225.461,108.641 226.294,107.308 228,106.5C 227.212,100.192 224.378,94.6918 219.5,90C 217.043,89.0842 214.709,87.9175 212.5,86.5C 203.981,89.2721 195.648,92.2721 187.5,95.5C 195.919,89.4527 205.253,85.9527 215.5,85C 222.421,89.8547 227.421,96.188 230.5,104C 229.749,106.912 228.082,109.079 225.5,110.5 Z"/></g>
<g><path style="opacity:1" fill="#6ea66e" d="M 225.5,110.5 C 218.723,110.567 212.39,112.234 206.5,115.5C 204.703,117.131 203.536,119.131 203,121.5C 202.825,124.95 202.658,128.283 202.5,131.5C 186.203,135.13 175.203,144.797 169.5,160.5C 163.987,158.55 158.32,158.05 152.5,159C 147.54,162.127 143.873,166.294 141.5,171.5C 140.778,171.918 140.278,172.584 140,173.5C 139.825,177.211 139.325,180.878 138.5,184.5C 137.583,183.873 136.583,183.539 135.5,183.5C 132.893,177.769 132.059,171.769 133,165.5C 140.478,140.712 154.311,120.212 174.5,104C 178.716,100.944 183.049,98.1106 187.5,95.5C 195.648,92.2721 203.981,89.2721 212.5,86.5C 214.709,87.9175 217.043,89.0842 219.5,90C 224.378,94.6918 227.212,100.192 228,106.5C 226.294,107.308 225.461,108.641 225.5,110.5 Z"/></g>
<g><path style="opacity:1" fill="#222427" d="M 346.5,90.5 C 359.295,89.8699 371.962,89.2033 384.5,88.5C 389.636,85.1437 389.303,81.977 383.5,79C 379.422,77.8717 376.422,79.205 374.5,83C 367.495,84.3236 364.995,81.4902 367,74.5C 374.786,67.5047 383.286,66.6714 392.5,72C 400.5,80 400.5,88 392.5,96C 390.956,96.2896 389.623,96.9563 388.5,98C 374.488,98.8328 360.488,98.6661 346.5,97.5C 345.234,95.0276 345.234,92.6943 346.5,90.5 Z"/></g>
<g><path style="opacity:1" fill="#2b2e2f" d="M 96.5,97.5 C 108.171,97.3335 119.838,97.5001 131.5,98C 135.729,101.843 135.395,105.177 130.5,108C 119.833,108.667 109.167,108.667 98.5,108C 95.7974,107.135 94.4641,105.301 94.5,102.5C 94.9865,100.696 95.6532,99.0291 96.5,97.5 Z"/></g>
<g><path style="opacity:1" fill="#6da66d" d="M 322.5,103.5 C 329.03,107.518 334.863,112.518 340,118.5C 346.534,126.191 352.034,134.525 356.5,143.5C 356.335,146.518 356.502,149.518 357,152.5C 360.295,155.317 362.295,158.983 363,163.5C 363.825,167.211 363.659,170.878 362.5,174.5C 361.808,173.975 361.308,173.308 361,172.5C 359.903,174.053 358.57,175.386 357,176.5C 356.667,176.167 356.333,175.833 356,175.5C 356.518,169.615 355.018,164.448 351.5,160C 350.552,159.517 349.552,159.351 348.5,159.5C 348.5,159.167 348.5,158.833 348.5,158.5C 347.517,156.709 346.184,155.209 344.5,154C 340.5,153.667 336.5,153.333 332.5,153C 328.026,149.369 323.36,146.035 318.5,143C 313.833,142.333 309.167,142.333 304.5,143C 301.632,144.383 298.632,145.216 295.5,145.5C 295.338,143.473 295.505,141.473 296,139.5C 297.356,138.62 298.856,138.286 300.5,138.5C 300.125,141.907 301.125,142.407 303.5,140C 302.167,139.333 302.167,138.667 303.5,138C 302.552,137.517 301.552,137.351 300.5,137.5C 300.343,136.127 300.51,134.793 301,133.5C 303.945,130.474 305.112,126.807 304.5,122.5C 304.842,118.802 304.009,115.469 302,112.5C 301.333,109.833 301.333,107.167 302,104.5C 304.983,104.383 308.15,103.883 311.5,103C 310.672,102.085 309.672,101.419 308.5,101C 310.868,97.9217 312.701,98.4217 314,102.5C 314.893,101.919 315.893,101.585 317,101.5C 318.939,101.954 320.772,102.621 322.5,103.5 Z"/></g>
<g><path style="opacity:0.999" fill="#2d2f31" d="M 372.5,106.5 C 383.505,106.333 394.505,106.5 405.5,107C 410.364,109.464 410.697,112.464 406.5,116C 394.833,116.667 383.167,116.667 371.5,116C 367.363,112.378 367.696,109.212 372.5,106.5 Z"/></g>
<g><path style="opacity:0.004" fill="#fefffe" d="M 92.5,115.5 C 93.8333,116.167 93.8333,116.167 92.5,115.5 Z"/></g>
<g><path style="opacity:1" fill="#1e2324" d="M 301.5,79.5 C 348.755,101.267 374.922,138.267 380,190.5C 381.316,214.89 376.482,237.89 365.5,259.5C 364.094,259.973 363.427,260.973 363.5,262.5C 352.213,284.787 335.546,301.787 313.5,313.5C 314.728,311.99 314.728,310.49 313.5,309C 314,308.5 314.5,308 315,307.5C 316.667,307.833 318.333,308.167 320,308.5C 320.667,307.167 321.333,305.833 322,304.5C 322.333,304.833 322.667,305.167 323,305.5C 324.934,303.581 324.767,302.081 322.5,301C 325.451,298.916 326.117,296.249 324.5,293C 325.738,293.077 326.738,292.911 327.5,292.5C 324.66,291.894 322.327,290.561 320.5,288.5C 326.379,285.858 331.713,282.358 336.5,278C 338.707,275.439 340.54,272.606 342,269.5C 343.399,268.773 344.899,268.273 346.5,268C 345.833,267.667 345.167,267.333 344.5,267C 346.037,265.89 346.703,264.39 346.5,262.5C 347.5,262.5 348.5,262.5 349.5,262.5C 349.5,259.5 349.5,256.5 349.5,253.5C 349.675,246.446 351.341,239.779 354.5,233.5C 360.491,229.018 365.158,223.518 368.5,217C 366.644,214.819 364.477,212.985 362,211.5C 360.906,209.922 360.072,208.255 359.5,206.5C 358.022,202.022 356.355,197.522 354.5,193C 355.098,191.699 356.098,190.865 357.5,190.5C 360.659,196.142 364.326,201.475 368.5,206.5C 369.971,205.619 370.804,204.286 371,202.5C 372.267,191.759 371.101,181.425 367.5,171.5C 364.813,162.465 361.646,153.465 358,144.5C 357.617,143.944 357.117,143.611 356.5,143.5C 352.034,134.525 346.534,126.191 340,118.5C 334.863,112.518 329.03,107.518 322.5,103.5C 318.168,99.5724 313.335,96.239 308,93.5C 298.63,99.7743 296.964,107.774 303,117.5C 305.022,125.77 302.522,132.27 295.5,137C 294.207,137.49 292.873,137.657 291.5,137.5C 289.088,137.306 288.088,135.973 288.5,133.5C 283.556,134.386 278.723,135.719 274,137.5C 269.628,136.409 268.461,133.743 270.5,129.5C 273.837,127.828 277.17,126.161 280.5,124.5C 280.058,123.261 279.391,122.261 278.5,121.5C 274.749,115.358 276.416,112.525 283.5,113C 288.547,116.927 291.047,122.094 291,128.5C 293.142,127.524 294.308,125.857 294.5,123.5C 293.677,120.364 292.677,117.364 291.5,114.5C 293.339,115.752 295.172,115.752 297,114.5C 297.333,109.833 297.667,105.167 298,100.5C 300.681,98.4733 302.347,95.8066 303,92.5C 305.009,90.9895 306.842,89.3229 308.5,87.5C 307.91,86.2011 306.91,85.3678 305.5,85C 307.271,84.4646 307.604,83.6313 306.5,82.5C 305.131,84.124 303.464,84.624 301.5,84C 303.744,82.1116 303.744,80.6116 301.5,79.5 Z"/></g>
<g><path style="opacity:1" fill="#8eb8bc" d="M 237.5,112.5 C 241.608,114.33 241.275,115.33 236.5,115.5C 236.719,116.675 236.386,117.675 235.5,118.5C 232.733,120.575 230.067,122.075 227.5,123C 227.833,123.333 228.167,123.667 228.5,124C 227.271,125.529 225.771,126.696 224,127.5C 222.847,125.503 221.347,125.17 219.5,126.5C 223.311,127.738 223.311,128.404 219.5,128.5C 219.5,129.5 219.5,130.5 219.5,131.5C 220.5,131.5 221.5,131.5 222.5,131.5C 222.5,132.5 222.5,133.5 222.5,134.5C 223.822,134.67 224.989,134.337 226,133.5C 228.403,134.879 230.57,136.545 232.5,138.5C 232.833,138.167 233.167,137.833 233.5,137.5C 232.573,136.094 231.573,134.594 230.5,133C 228.833,132.667 227.167,132.333 225.5,132C 224.572,131.612 223.905,130.945 223.5,130C 224.137,128.287 225.137,128.121 226.5,129.5C 229.109,128.77 231.776,128.27 234.5,128C 234.167,127.667 233.833,127.333 233.5,127C 235.137,126.399 236.803,125.899 238.5,125.5C 240.916,126.035 241.083,127.035 239,128.5C 237.716,134.447 239.05,135.114 243,130.5C 243.691,133.266 245.191,133.933 247.5,132.5C 252.988,134.114 253.654,136.78 249.5,140.5C 250.651,141.731 251.817,141.731 253,140.5C 253.216,138.616 253.883,136.949 255,135.5C 255.333,138.167 255.667,140.833 256,143.5C 257.269,142.095 257.769,140.429 257.5,138.5C 258.5,138.5 259.5,138.5 260.5,138.5C 260.185,136.774 260.019,135.107 260,133.5C 266.026,135.314 268.526,132.981 267.5,126.5C 270.833,125.833 274.167,125.167 277.5,124.5C 277.263,123.209 277.596,122.209 278.5,121.5C 279.391,122.261 280.058,123.261 280.5,124.5C 277.17,126.161 273.837,127.828 270.5,129.5C 268.461,133.743 269.628,136.409 274,137.5C 278.723,135.719 283.556,134.386 288.5,133.5C 288.088,135.973 289.088,137.306 291.5,137.5C 290.983,139.274 290.65,140.941 290.5,142.5C 288.456,141.222 286.456,141.388 284.5,143C 283.875,145.8 283.208,148.634 282.5,151.5C 278.738,152.308 275.238,153.642 272,155.5C 272.289,164.792 277.122,169.959 286.5,171C 275.772,174.229 268.439,181.062 264.5,191.5C 263.5,191.5 262.5,191.5 261.5,191.5C 261.59,194.152 260.924,196.485 259.5,198.5C 259.565,198.062 259.399,197.728 259,197.5C 258.667,198.167 258.333,198.833 258,199.5C 256.75,198.427 255.416,198.427 254,199.5C 253.426,198.646 252.759,197.646 252,196.5C 250.174,197.01 250.007,197.844 251.5,199C 248.367,199.911 245.367,200.244 242.5,200C 242.36,201.264 242.36,202.431 242.5,203.5C 241.029,202.619 240.196,201.286 240,199.5C 239.193,203.449 238.693,203.449 238.5,199.5C 236.61,199.703 235.11,199.037 234,197.5C 232.331,195.831 231.498,193.831 231.5,191.5C 232.833,191.5 234.167,191.5 235.5,191.5C 235.5,190.167 235.5,188.833 235.5,187.5C 233.712,187.785 232.045,187.452 230.5,186.5C 230.667,186.167 230.833,185.833 231,185.5C 234.572,186.978 237.405,185.978 239.5,182.5C 239.521,180.398 239.187,178.232 238.5,176C 241,175.115 243.333,173.948 245.5,172.5C 244.833,172.167 244.167,171.833 243.5,171.5C 240.978,172.693 238.478,173.693 236,174.5C 233.766,173.299 231.599,171.965 229.5,170.5C 227.675,171.651 225.675,172.318 223.5,172.5C 223.033,174.711 222.033,176.711 220.5,178.5C 217.654,177.078 215.32,177.744 213.5,180.5C 214.587,182.105 213.921,182.771 211.5,182.5C 209.078,182.743 207.412,181.743 206.5,179.5C 205.494,179.938 205.494,180.604 206.5,181.5C 205.167,182.833 203.833,182.833 202.5,181.5C 204.748,180.676 204.914,179.676 203,178.5C 201.559,179.26 200.059,179.926 198.5,180.5C 198.167,180 197.833,179.5 197.5,179C 198.444,177.523 199.777,176.523 201.5,176C 200.809,174.933 200.309,173.766 200,172.5C 199.693,175.876 197.86,177.21 194.5,176.5C 194.238,175.022 194.571,173.689 195.5,172.5C 196.396,173.506 197.062,173.506 197.5,172.5C 193.64,168.217 191.806,169.217 192,175.5C 191.667,175.167 191.333,174.833 191,174.5C 188.757,175.971 186.257,176.971 183.5,177.5C 182.572,178.768 182.405,180.101 183,181.5C 184.32,181.201 185.82,181.034 187.5,181C 189.105,179.64 190.605,178.14 192,176.5C 195.097,177.289 195.264,178.456 192.5,180C 194.891,180.691 194.891,181.691 192.5,183C 194.199,183.393 195.699,182.893 197,181.5C 198.811,182.424 198.645,183.257 196.5,184C 197.025,184.692 197.692,185.192 198.5,185.5C 201.724,183.627 205.058,183.293 208.5,184.5C 205.197,185.44 201.864,186.273 198.5,187C 198.043,187.414 197.709,187.914 197.5,188.5C 199.958,189.124 201.624,190.624 202.5,193C 198.745,194.87 198.745,196.87 202.5,199C 202.043,199.414 201.709,199.914 201.5,200.5C 198.704,200.371 195.871,200.371 193,200.5C 191.495,199.327 189.995,198.161 188.5,197C 190.044,196.71 191.377,196.044 192.5,195C 188.848,194.103 185.181,193.27 181.5,192.5C 178.66,193.569 178.326,194.736 180.5,196C 179.271,197.633 177.271,199.133 174.5,200.5C 170.841,199.66 167.841,197.827 165.5,195C 165.833,194.667 166.167,194.333 166.5,194C 164.615,191.292 162.949,188.459 161.5,185.5C 161.709,184.914 162.043,184.414 162.5,184C 158.384,183.369 155.051,181.536 152.5,178.5C 153.893,173.086 157.226,171.086 162.5,172.5C 164.44,174.045 165.606,176.045 166,178.5C 167.154,179.743 168.488,180.743 170,181.5C 171.242,180.128 172.742,179.128 174.5,178.5C 175.386,177.675 175.719,176.675 175.5,175.5C 176.193,171.84 177.026,168.173 178,164.5C 182.224,151.267 191.057,143.433 204.5,141C 209.064,139.27 212.064,136.104 213.5,131.5C 211.784,129.085 211.284,126.418 212,123.5C 212.5,123 213,122.5 213.5,122C 222.93,122.156 230.93,118.989 237.5,112.5 Z"/></g>
<g><path style="opacity:0.004" fill="#fefffe" d="M 8.5,131.5 C 9.83333,132.167 9.83333,132.167 8.5,131.5 Z"/></g>
<g><path style="opacity:0.004" fill="#fefffe" d="M 129.5,137.5 C 130.833,138.167 130.833,138.167 129.5,137.5 Z"/></g>
<g><path style="opacity:1" fill="#72a174" d="M 322.5,103.5 C 320.772,102.621 318.939,101.954 317,101.5C 315.893,101.585 314.893,101.919 314,102.5C 312.701,98.4217 310.868,97.9217 308.5,101C 309.672,101.419 310.672,102.085 311.5,103C 308.15,103.883 304.983,104.383 302,104.5C 301.333,107.167 301.333,109.833 302,112.5C 304.009,115.469 304.842,118.802 304.5,122.5C 305.112,126.807 303.945,130.474 301,133.5C 300.51,134.793 300.343,136.127 300.5,137.5C 301.552,137.351 302.552,137.517 303.5,138C 302.167,138.667 302.167,139.333 303.5,140C 301.125,142.407 300.125,141.907 300.5,138.5C 298.856,138.286 297.356,138.62 296,139.5C 295.505,141.473 295.338,143.473 295.5,145.5C 298.632,145.216 301.632,144.383 304.5,143C 309.167,142.333 313.833,142.333 318.5,143C 323.36,146.035 328.026,149.369 332.5,153C 336.5,153.333 340.5,153.667 344.5,154C 346.184,155.209 347.517,156.709 348.5,158.5C 347.833,158.5 347.167,158.5 346.5,158.5C 341.764,156.574 336.764,155.074 331.5,154C 325.607,149.304 319.107,145.804 312,143.5C 305.153,144.335 299.653,147.335 295.5,152.5C 294.542,152.953 293.708,153.619 293,154.5C 294.209,150.093 293.376,146.093 290.5,142.5C 290.65,140.941 290.983,139.274 291.5,137.5C 292.873,137.657 294.207,137.49 295.5,137C 302.522,132.27 305.022,125.77 303,117.5C 296.964,107.774 298.63,99.7743 308,93.5C 313.335,96.239 318.168,99.5724 322.5,103.5 Z"/></g>
<g><path style="opacity:1" fill="#142718" d="M 346.5,158.5 C 345.883,158.611 345.383,158.944 345,159.5C 340.386,157.644 335.553,156.477 330.5,156C 324.631,151.903 318.631,148.069 312.5,144.5C 308.422,145.913 304.422,147.413 300.5,149C 299.781,151.556 298.114,152.723 295.5,152.5C 299.653,147.335 305.153,144.335 312,143.5C 319.107,145.804 325.607,149.304 331.5,154C 336.764,155.074 341.764,156.574 346.5,158.5 Z"/></g>
<g><path style="opacity:0.004" fill="#fefffe" d="M 375.5,158.5 C 376.833,159.167 376.833,159.167 375.5,158.5 Z"/></g>
<g><path style="opacity:0.004" fill="#fefffe" d="M 23.5,165.5 C 24.8333,166.167 24.8333,166.167 23.5,165.5 Z"/></g>
<g><path style="opacity:1" fill="#132418" d="M 346.5,158.5 C 347.167,158.5 347.833,158.5 348.5,158.5C 348.5,158.833 348.5,159.167 348.5,159.5C 352.162,162.336 353.829,166.169 353.5,171C 353.878,176.749 351.544,180.916 346.5,183.5C 337.548,184.686 328.548,185.186 319.5,185C 315.817,183.159 312.484,180.826 309.5,178C 307.966,177.077 306.299,176.577 304.5,176.5C 297.341,176.58 290.675,178.246 284.5,181.5C 284.36,179.876 285.027,178.71 286.5,178C 290.442,177.007 294.442,176.34 298.5,176C 306.09,172.512 312.09,174.512 316.5,182C 317.5,182.333 318.5,182.667 319.5,183C 328.056,183.536 336.389,183.203 344.5,182C 346.694,179.806 348.86,177.64 351,175.5C 351.373,173.302 351.873,171.135 352.5,169C 350.987,167.121 350.321,164.954 350.5,162.5C 347.858,162.512 346.525,161.179 346.5,158.5 Z"/></g>
<g><path style="opacity:0.004" fill="#fefffe" d="M 426.5,178.5 C 427.833,179.167 427.833,179.167 426.5,178.5 Z"/></g>
<g><path style="opacity:1" fill="#8cb7ba" d="M 175.5,175.5 C 175.719,176.675 175.386,177.675 174.5,178.5C 172.742,179.128 171.242,180.128 170,181.5C 168.488,180.743 167.154,179.743 166,178.5C 165.606,176.045 164.44,174.045 162.5,172.5C 157.226,171.086 153.893,173.086 152.5,178.5C 155.051,181.536 158.384,183.369 162.5,184C 162.043,184.414 161.709,184.914 161.5,185.5C 162.949,188.459 164.615,191.292 166.5,194C 166.167,194.333 165.833,194.667 165.5,195C 167.841,197.827 170.841,199.66 174.5,200.5C 177.271,199.133 179.271,197.633 180.5,196C 178.326,194.736 178.66,193.569 181.5,192.5C 185.181,193.27 188.848,194.103 192.5,195C 191.377,196.044 190.044,196.71 188.5,197C 189.995,198.161 191.495,199.327 193,200.5C 195.871,200.371 198.704,200.371 201.5,200.5C 201.709,199.914 202.043,199.414 202.5,199C 198.745,196.87 198.745,194.87 202.5,193C 201.624,190.624 199.958,189.124 197.5,188.5C 197.709,187.914 198.043,187.414 198.5,187C 201.864,186.273 205.197,185.44 208.5,184.5C 205.058,183.293 201.724,183.627 198.5,185.5C 197.692,185.192 197.025,184.692 196.5,184C 198.645,183.257 198.811,182.424 197,181.5C 195.699,182.893 194.199,183.393 192.5,183C 194.891,181.691 194.891,180.691 192.5,180C 195.264,178.456 195.097,177.289 192,176.5C 190.605,178.14 189.105,179.64 187.5,181C 185.82,181.034 184.32,181.201 183,181.5C 182.405,180.101 182.572,178.768 183.5,177.5C 186.257,176.971 188.757,175.971 191,174.5C 191.333,174.833 191.667,175.167 192,175.5C 191.806,169.217 193.64,168.217 197.5,172.5C 197.062,173.506 196.396,173.506 195.5,172.5C 194.571,173.689 194.238,175.022 194.5,176.5C 197.86,177.21 199.693,175.876 200,172.5C 200.309,173.766 200.809,174.933 201.5,176C 199.777,176.523 198.444,177.523 197.5,179C 197.833,179.5 198.167,180 198.5,180.5C 200.059,179.926 201.559,179.26 203,178.5C 204.914,179.676 204.748,180.676 202.5,181.5C 203.833,182.833 205.167,182.833 206.5,181.5C 205.494,180.604 205.494,179.938 206.5,179.5C 207.412,181.743 209.078,182.743 211.5,182.5C 213.921,182.771 214.587,182.105 213.5,180.5C 215.32,177.744 217.654,177.078 220.5,178.5C 222.033,176.711 223.033,174.711 223.5,172.5C 225.675,172.318 227.675,171.651 229.5,170.5C 231.599,171.965 233.766,173.299 236,174.5C 238.478,173.693 240.978,172.693 243.5,171.5C 244.167,171.833 244.833,172.167 245.5,172.5C 243.333,173.948 241,175.115 238.5,176C 239.187,178.232 239.521,180.398 239.5,182.5C 237.405,185.978 234.572,186.978 231,185.5C 230.833,185.833 230.667,186.167 230.5,186.5C 232.045,187.452 233.712,187.785 235.5,187.5C 235.5,188.833 235.5,190.167 235.5,191.5C 234.167,191.5 232.833,191.5 231.5,191.5C 231.498,193.831 232.331,195.831 234,197.5C 235.11,199.037 236.61,199.703 238.5,199.5C 238.693,203.449 239.193,203.449 240,199.5C 240.196,201.286 241.029,202.619 242.5,203.5C 242.36,202.431 242.36,201.264 242.5,200C 245.367,200.244 248.367,199.911 251.5,199C 250.007,197.844 250.174,197.01 252,196.5C 252.759,197.646 253.426,198.646 254,199.5C 255.416,198.427 256.75,198.427 258,199.5C 258.333,198.833 258.667,198.167 259,197.5C 259.399,197.728 259.565,198.062 259.5,198.5C 260.569,201.408 260.736,204.408 260,207.5C 259,208.833 258,208.833 257,207.5C 256.183,210.844 257.016,212.844 259.5,213.5C 257.978,215.156 258.311,216.323 260.5,217C 259.751,218.734 259.251,220.567 259,222.5C 256.551,222.937 254.217,222.937 252,222.5C 251,223.167 250,223.833 249,224.5C 247.274,223.424 245.441,223.257 243.5,224C 245.546,227.252 247.379,230.419 249,233.5C 248.029,232.802 246.863,232.802 245.5,233.5C 243.52,232.516 241.853,231.183 240.5,229.5C 239.311,228.571 237.978,228.238 236.5,228.5C 231.185,226.67 225.852,224.836 220.5,223C 215.388,218.464 210.721,213.464 206.5,208C 195.653,201.297 184.153,199.797 172,203.5C 169.87,200.77 167.203,198.77 164,197.5C 163.517,196.552 163.351,195.552 163.5,194.5C 163.509,192.692 163.009,191.025 162,189.5C 158.933,186.138 155.266,183.805 151,182.5C 148.977,171.349 153.477,166.849 164.5,169C 165.98,171.559 167.313,174.226 168.5,177C 171.171,177.833 173.504,177.333 175.5,175.5 Z"/></g>
<g><path style="opacity:0.004" fill="#fefffe" d="M 477.5,179.5 C 478.833,180.167 478.833,180.167 477.5,179.5 Z"/></g>
<g><path style="opacity:1" fill="#6ca46c" d="M 354.5,198.5 C 355.799,201.395 357.465,204.062 359.5,206.5C 360.072,208.255 360.906,209.922 362,211.5C 364.477,212.985 366.644,214.819 368.5,217C 365.158,223.518 360.491,229.018 354.5,233.5C 351.341,239.779 349.675,246.446 349.5,253.5C 343.596,266.242 334.929,276.742 323.5,285C 320.607,286.149 317.607,286.649 314.5,286.5C 314.283,278.084 314.95,269.75 316.5,261.5C 316.5,261.167 316.5,260.833 316.5,260.5C 317.268,259.737 317.768,258.737 318,257.5C 318.667,250.5 318.667,243.5 318,236.5C 315.017,226.252 308.184,221.918 297.5,223.5C 293.429,223.766 289.429,223.433 285.5,222.5C 284.048,219.878 281.881,218.212 279,217.5C 275.409,212.916 273.242,207.749 272.5,202C 272.999,199.995 274.166,198.495 276,197.5C 277.438,191.296 280.271,185.963 284.5,181.5C 290.675,178.246 297.341,176.58 304.5,176.5C 306.299,176.577 307.966,177.077 309.5,178C 312.484,180.826 315.817,183.159 319.5,185C 328.548,185.186 337.548,184.686 346.5,183.5C 348.199,183.66 349.866,183.494 351.5,183C 353.775,180.052 356.609,177.886 360,176.5C 360.945,176.905 361.612,177.572 362,178.5C 362.39,176.578 363.39,174.578 365,172.5C 366.918,175.402 366.751,178.069 364.5,180.5C 367.418,183.792 366.918,186.125 363,187.5C 360.67,185.957 358.17,185.457 355.5,186C 353.838,188.487 351.504,189.987 348.5,190.5C 349.325,191.386 350.325,191.719 351.5,191.5C 351.678,194.216 352.178,196.883 353,199.5C 353.383,198.944 353.883,198.611 354.5,198.5 Z"/></g>
<g><path style="opacity:1" fill="#709872" d="M 141.5,171.5 C 138.42,183.352 142.587,191.019 154,194.5C 155.051,197.654 156.051,200.654 157,203.5C 152.609,199.388 147.776,195.888 142.5,193C 139.177,190.517 136.843,187.351 135.5,183.5C 136.583,183.539 137.583,183.873 138.5,184.5C 139.325,180.878 139.825,177.211 140,173.5C 140.278,172.584 140.778,171.918 141.5,171.5 Z"/></g>
<g><path style="opacity:1" fill="#719b72" d="M 284.5,181.5 C 280.271,185.963 277.438,191.296 276,197.5C 274.166,198.495 272.999,199.995 272.5,202C 273.242,207.749 275.409,212.916 279,217.5C 281.881,218.212 284.048,219.878 285.5,222.5C 289.429,223.433 293.429,223.766 297.5,223.5C 294.375,224.479 291.042,224.813 287.5,224.5C 276.487,222.508 271.153,215.842 271.5,204.5C 271.547,194.317 275.88,186.65 284.5,181.5 Z"/></g>
<g><path style="opacity:1" fill="#71a172" d="M 356.5,143.5 C 357.117,143.611 357.617,143.944 358,144.5C 361.646,153.465 364.813,162.465 367.5,171.5C 369.282,182.431 369.782,193.431 369,204.5C 365.681,199.348 362.514,194.182 359.5,189C 355.558,187.582 353.225,188.916 352.5,193C 353.32,194.8 353.986,196.634 354.5,198.5C 353.883,198.611 353.383,198.944 353,199.5C 352.178,196.883 351.678,194.216 351.5,191.5C 350.325,191.719 349.325,191.386 348.5,190.5C 351.504,189.987 353.838,188.487 355.5,186C 358.17,185.457 360.67,185.957 363,187.5C 366.918,186.125 367.418,183.792 364.5,180.5C 366.751,178.069 366.918,175.402 365,172.5C 363.39,174.578 362.39,176.578 362,178.5C 361.612,177.572 360.945,176.905 360,176.5C 356.609,177.886 353.775,180.052 351.5,183C 349.866,183.494 348.199,183.66 346.5,183.5C 351.544,180.916 353.878,176.749 353.5,171C 353.829,166.169 352.162,162.336 348.5,159.5C 349.552,159.351 350.552,159.517 351.5,160C 355.018,164.448 356.518,169.615 356,175.5C 356.333,175.833 356.667,176.167 357,176.5C 358.57,175.386 359.903,174.053 361,172.5C 361.308,173.308 361.808,173.975 362.5,174.5C 363.659,170.878 363.825,167.211 363,163.5C 362.295,158.983 360.295,155.317 357,152.5C 356.502,149.518 356.335,146.518 356.5,143.5 Z"/></g>
<g><path style="opacity:0.004" fill="#fefffe" d="M 56.5,193.5 C 57.8333,194.167 57.8333,194.167 56.5,193.5 Z"/></g>
<g><path style="opacity:1" fill="#18291c" d="M 367.5,171.5 C 371.101,181.425 372.267,191.759 371,202.5C 370.804,204.286 369.971,205.619 368.5,206.5C 364.326,201.475 360.659,196.142 357.5,190.5C 356.098,190.865 355.098,191.699 354.5,193C 356.355,197.522 358.022,202.022 359.5,206.5C 357.465,204.062 355.799,201.395 354.5,198.5C 353.986,196.634 353.32,194.8 352.5,193C 353.225,188.916 355.558,187.582 359.5,189C 362.514,194.182 365.681,199.348 369,204.5C 369.782,193.431 369.282,182.431 367.5,171.5 Z"/></g>
<g><path style="opacity:0.004" fill="#fefffe" d="M 112.5,208.5 C 113.833,209.167 113.833,209.167 112.5,208.5 Z"/></g>
<g><path style="opacity:0.004" fill="#fefffe" d="M 445.5,212.5 C 446.833,213.167 446.833,213.167 445.5,212.5 Z"/></g>
<g><path style="opacity:0.004" fill="#fefffe" d="M 420.5,219.5 C 421.833,220.167 421.833,220.167 420.5,219.5 Z"/></g>
<g><path style="opacity:1" fill="#191f22" d="M 290.5,142.5 C 293.376,146.093 294.209,150.093 293,154.5C 293.708,153.619 294.542,152.953 295.5,152.5C 298.114,152.723 299.781,151.556 300.5,149C 304.422,147.413 308.422,145.913 312.5,144.5C 318.631,148.069 324.631,151.903 330.5,156C 335.553,156.477 340.386,157.644 345,159.5C 345.383,158.944 345.883,158.611 346.5,158.5C 346.525,161.179 347.858,162.512 350.5,162.5C 350.321,164.954 350.987,167.121 352.5,169C 351.873,171.135 351.373,173.302 351,175.5C 348.86,177.64 346.694,179.806 344.5,182C 336.389,183.203 328.056,183.536 319.5,183C 318.5,182.667 317.5,182.333 316.5,182C 312.09,174.512 306.09,172.512 298.5,176C 294.442,176.34 290.442,177.007 286.5,178C 285.027,178.71 284.36,179.876 284.5,181.5C 275.88,186.65 271.547,194.317 271.5,204.5C 271.153,215.842 276.487,222.508 287.5,224.5C 293.653,225.328 299.987,225.828 306.5,226C 309.242,227.07 311.742,228.57 314,230.5C 317.698,240.164 318.532,250.164 316.5,260.5C 316.5,260.833 316.5,261.167 316.5,261.5C 315.466,264.05 314.133,266.55 312.5,269C 313.273,275.129 313.773,281.296 314,287.5C 316.041,288.423 318.208,288.756 320.5,288.5C 322.327,290.561 324.66,291.894 327.5,292.5C 326.738,292.911 325.738,293.077 324.5,293C 326.117,296.249 325.451,298.916 322.5,301C 324.767,302.081 324.934,303.581 323,305.5C 322.667,305.167 322.333,304.833 322,304.5C 321.333,305.833 320.667,307.167 320,308.5C 318.333,308.167 316.667,307.833 315,307.5C 314.5,308 314,308.5 313.5,309C 314.728,310.49 314.728,311.99 313.5,313.5C 312.833,313.833 312.167,314.167 311.5,314.5C 305.33,314.667 304.33,312.833 308.5,309C 309.784,308.316 310.951,308.483 312,309.5C 312.662,307.187 313.162,304.854 313.5,302.5C 316.433,300.355 319.433,298.188 322.5,296C 313.283,298.09 307.783,294.59 306,285.5C 305.333,281.833 305.333,278.167 306,274.5C 307.817,265.55 309.317,256.55 310.5,247.5C 310.217,243.804 309.717,240.137 309,236.5C 308.167,235.667 307.333,234.833 306.5,234C 297.425,233.915 288.425,233.248 279.5,232C 265.421,224.825 259.921,213.325 263,197.5C 263.813,195.564 264.313,193.564 264.5,191.5C 268.439,181.062 275.772,174.229 286.5,171C 277.122,169.959 272.289,164.792 272,155.5C 275.238,153.642 278.738,152.308 282.5,151.5C 283.208,148.634 283.875,145.8 284.5,143C 286.456,141.388 288.456,141.222 290.5,142.5 Z"/></g>
<g><path style="opacity:1" fill="#91b6ba" d="M 308.5,152.5 C 310.199,152.34 311.866,152.506 313.5,153C 319.199,157.182 325.199,160.848 331.5,164C 335.287,164.16 338.954,164.826 342.5,166C 344.988,168.627 345.155,171.46 343,174.5C 335.914,175.712 328.747,176.212 321.5,176C 318.443,173.277 315.11,170.944 311.5,169C 303.705,168.244 296.038,168.577 288.5,170C 290.5,169 292.5,168 294.5,167C 298.698,161.637 303.364,156.804 308.5,152.5 Z"/></g>
<g><path style="opacity:1" fill="#142818" d="M 297.5,223.5 C 308.184,221.918 315.017,226.252 318,236.5C 318.667,243.5 318.667,250.5 318,257.5C 317.768,258.737 317.268,259.737 316.5,260.5C 318.532,250.164 317.698,240.164 314,230.5C 311.742,228.57 309.242,227.07 306.5,226C 299.987,225.828 293.653,225.328 287.5,224.5C 291.042,224.813 294.375,224.479 297.5,223.5 Z"/></g>
<g><path style="opacity:0.004" fill="#fefffe" d="M 39.5,233.5 C 40.8333,234.167 40.8333,234.167 39.5,233.5 Z"/></g>
<g><path style="opacity:0.004" fill="#fefffe" d="M 422.5,233.5 C 423.833,234.167 423.833,234.167 422.5,233.5 Z"/></g>
<g><path style="opacity:1" fill="#89b6bb" d="M 237.5,259.5 C 238.11,258.609 238.443,257.609 238.5,256.5C 240.554,254.3 243.054,252.633 246,251.5C 247.249,247.598 248.082,243.598 248.5,239.5C 250.199,239.66 251.866,239.494 253.5,239C 251.363,236.821 251.029,234.321 252.5,231.5C 255.59,227.58 259.423,224.58 264,222.5C 266.039,225.271 267.705,228.271 269,231.5C 269.725,230.941 270.558,230.608 271.5,230.5C 273.488,232.161 275.821,233.328 278.5,234C 287.193,234.834 295.859,235.667 304.5,236.5C 304.846,241.179 305.179,246.012 305.5,251C 305.97,255.282 304.97,259.115 302.5,262.5C 305.559,269.734 303.225,272.901 295.5,272C 295.475,276.803 295.475,281.636 295.5,286.5C 294.5,287.167 293.5,287.833 292.5,288.5C 293.641,289.425 293.641,290.259 292.5,291C 288.502,291.711 287.835,290.711 290.5,288C 288.445,287.313 286.779,286.146 285.5,284.5C 285.833,284.167 286.167,283.833 286.5,283.5C 287.929,284.935 289.595,285.935 291.5,286.5C 292.932,286.267 293.432,285.6 293,284.5C 290.575,283.383 288.409,281.883 286.5,280C 283.997,279.126 281.997,279.793 280.5,282C 282.037,283.11 282.703,284.61 282.5,286.5C 284.308,286.491 285.975,286.991 287.5,288C 286.027,288.71 285.36,289.876 285.5,291.5C 283.712,291.785 282.045,291.452 280.5,290.5C 280.709,289.914 281.043,289.414 281.5,289C 280.421,288.044 279.255,287.211 278,286.5C 276.122,289.45 273.622,290.117 270.5,288.5C 270.167,289.833 269.833,291.167 269.5,292.5C 265.631,288.243 261.298,287.576 256.5,290.5C 255.511,286.893 255.177,283.226 255.5,279.5C 253.396,279.799 251.396,279.466 249.5,278.5C 251.278,278.431 253.111,278.097 255,277.5C 255.495,275.527 255.662,273.527 255.5,271.5C 253.323,271.586 251.323,272.253 249.5,273.5C 248.667,272.5 247.833,271.5 247,270.5C 244.959,271.423 242.792,271.756 240.5,271.5C 240.616,274.91 238.95,276.244 235.5,275.5C 235.126,272.028 236.126,269.028 238.5,266.5C 237.626,264.253 237.292,261.92 237.5,259.5 Z"/></g>
<g><path style="opacity:1" fill="#8c9a9e" d="M 361.5,238.5 C 362.376,238.369 363.043,238.702 363.5,239.5C 362.633,242.935 361.466,246.269 360,249.5C 359.242,245.643 359.742,241.977 361.5,238.5 Z"/></g>
<g><path style="opacity:0.004" fill="#fefffe" d="M 42.5,248.5 C 43.8333,249.167 43.8333,249.167 42.5,248.5 Z"/></g>
<g><path style="opacity:0.122" fill="#b5b6b1" d="M 129.5,251.5 C 131.104,252.287 131.771,253.62 131.5,255.5C 130.326,254.486 129.66,253.153 129.5,251.5 Z"/></g>
<g><path style="opacity:0.49" fill="#9f9e9f" d="M 131.5,256.5 C 133.048,256.821 133.715,257.821 133.5,259.5C 132.599,258.71 131.932,257.71 131.5,256.5 Z"/></g>
<g><path style="opacity:0.051" fill="#aeafae" d="M 365.5,259.5 C 365.573,261.027 364.906,262.027 363.5,262.5C 363.427,260.973 364.094,259.973 365.5,259.5 Z"/></g>
<g><path style="opacity:0.004" fill="#fefffe" d="M 44.5,273.5 C 45.8333,274.167 45.8333,274.167 44.5,273.5 Z"/></g>
<g><path style="opacity:0.004" fill="#fefffe" d="M 74.5,277.5 C 75.8333,278.167 75.8333,278.167 74.5,277.5 Z"/></g>
<g><path style="opacity:1" fill="#8bb6ba" d="M 264.5,191.5 C 264.313,193.564 263.813,195.564 263,197.5C 259.921,213.325 265.421,224.825 279.5,232C 288.425,233.248 297.425,233.915 306.5,234C 307.333,234.833 308.167,235.667 309,236.5C 309.717,240.137 310.217,243.804 310.5,247.5C 309.317,256.55 307.817,265.55 306,274.5C 305.333,278.167 305.333,281.833 306,285.5C 307.783,294.59 313.283,298.09 322.5,296C 319.433,298.188 316.433,300.355 313.5,302.5C 282.664,320.938 249.997,325.105 215.5,315C 212.113,309.494 209.78,303.494 208.5,297C 214.577,292.581 218.744,286.747 221,279.5C 225.479,276.782 229.813,273.782 234,270.5C 235.593,266.839 236.759,263.172 237.5,259.5C 237.292,261.92 237.626,264.253 238.5,266.5C 236.126,269.028 235.126,272.028 235.5,275.5C 238.95,276.244 240.616,274.91 240.5,271.5C 242.792,271.756 244.959,271.423 247,270.5C 247.833,271.5 248.667,272.5 249.5,273.5C 251.323,272.253 253.323,271.586 255.5,271.5C 255.662,273.527 255.495,275.527 255,277.5C 253.111,278.097 251.278,278.431 249.5,278.5C 251.396,279.466 253.396,279.799 255.5,279.5C 255.177,283.226 255.511,286.893 256.5,290.5C 261.298,287.576 265.631,288.243 269.5,292.5C 269.833,291.167 270.167,289.833 270.5,288.5C 273.622,290.117 276.122,289.45 278,286.5C 279.255,287.211 280.421,288.044 281.5,289C 281.043,289.414 280.709,289.914 280.5,290.5C 282.045,291.452 283.712,291.785 285.5,291.5C 285.36,289.876 286.027,288.71 287.5,288C 285.975,286.991 284.308,286.491 282.5,286.5C 282.703,284.61 282.037,283.11 280.5,282C 281.997,279.793 283.997,279.126 286.5,280C 288.409,281.883 290.575,283.383 293,284.5C 293.432,285.6 292.932,286.267 291.5,286.5C 289.595,285.935 287.929,284.935 286.5,283.5C 286.167,283.833 285.833,284.167 285.5,284.5C 286.779,286.146 288.445,287.313 290.5,288C 287.835,290.711 288.502,291.711 292.5,291C 293.641,290.259 293.641,289.425 292.5,288.5C 293.5,287.833 294.5,287.167 295.5,286.5C 295.475,281.636 295.475,276.803 295.5,272C 303.225,272.901 305.559,269.734 302.5,262.5C 304.97,259.115 305.97,255.282 305.5,251C 305.179,246.012 304.846,241.179 304.5,236.5C 295.859,235.667 287.193,234.834 278.5,234C 275.821,233.328 273.488,232.161 271.5,230.5C 270.558,230.608 269.725,230.941 269,231.5C 267.705,228.271 266.039,225.271 264,222.5C 259.423,224.58 255.59,227.58 252.5,231.5C 251.029,234.321 251.363,236.821 253.5,239C 251.866,239.494 250.199,239.66 248.5,239.5C 248.082,243.598 247.249,247.598 246,251.5C 243.054,252.633 240.554,254.3 238.5,256.5C 240.109,253.054 241.943,249.721 244,246.5C 246.123,238.427 243.623,232.427 236.5,228.5C 237.978,228.238 239.311,228.571 240.5,229.5C 241.853,231.183 243.52,232.516 245.5,233.5C 246.863,232.802 248.029,232.802 249,233.5C 247.379,230.419 245.546,227.252 243.5,224C 245.441,223.257 247.274,223.424 249,224.5C 250,223.833 251,223.167 252,222.5C 254.217,222.937 256.551,222.937 259,222.5C 259.251,220.567 259.751,218.734 260.5,217C 258.311,216.323 257.978,215.156 259.5,213.5C 257.016,212.844 256.183,210.844 257,207.5C 258,208.833 259,208.833 260,207.5C 260.736,204.408 260.569,201.408 259.5,198.5C 260.924,196.485 261.59,194.152 261.5,191.5C 262.5,191.5 263.5,191.5 264.5,191.5 Z"/></g>
<g><path style="opacity:1" fill="#142219" d="M 349.5,253.5 C 349.5,256.5 349.5,259.5 349.5,262.5C 348.5,262.5 347.5,262.5 346.5,262.5C 346.703,264.39 346.037,265.89 344.5,267C 345.167,267.333 345.833,267.667 346.5,268C 344.899,268.273 343.399,268.773 342,269.5C 340.54,272.606 338.707,275.439 336.5,278C 331.713,282.358 326.379,285.858 320.5,288.5C 318.208,288.756 316.041,288.423 314,287.5C 313.773,281.296 313.273,275.129 312.5,269C 314.133,266.55 315.466,264.05 316.5,261.5C 314.95,269.75 314.283,278.084 314.5,286.5C 317.607,286.649 320.607,286.149 323.5,285C 334.929,276.742 343.596,266.242 349.5,253.5 Z"/></g>
<g><path style="opacity:0.004" fill="#fefffe" d="M 381.5,291.5 C 382.833,292.167 382.833,292.167 381.5,291.5 Z"/></g>
<g><path style="opacity:0.514" fill="#a6a5a6" d="M 165.5,299.5 C 167.404,299.738 168.738,300.738 169.5,302.5C 167.596,302.262 166.262,301.262 165.5,299.5 Z"/></g>
<g><path style="opacity:0.004" fill="#fefffe" d="M 418.5,299.5 C 419.833,300.167 419.833,300.167 418.5,299.5 Z"/></g>
<g><path style="opacity:0.004" fill="#fefffe" d="M 3.5,301.5 C 4.83333,302.167 4.83333,302.167 3.5,301.5 Z"/></g>
<g><path style="opacity:1" fill="#282a2c" d="M 375.5,271.5 C 392.364,270.862 400.197,278.862 399,295.5C 397.237,302.262 393.07,306.762 386.5,309C 373.167,309.667 359.833,309.667 346.5,309C 343.689,305.706 344.022,302.706 347.5,300C 359.167,299.667 370.833,299.333 382.5,299C 388.169,296.185 390.002,291.685 388,285.5C 380.958,279.597 376.125,281.097 373.5,290C 368.266,291.385 365.599,289.385 365.5,284C 365.542,282.033 366.042,280.199 367,278.5C 369.439,275.549 372.272,273.216 375.5,271.5 Z"/></g>
<g><path style="opacity:0.282" fill="#aeaead" d="M 170.5,303.5 C 172.027,303.427 173.027,304.094 173.5,305.5C 171.973,305.573 170.973,304.906 170.5,303.5 Z"/></g>
<g><path style="opacity:1" fill="#1d2225" d="M 130.5,191.5 C 127.392,237.298 144.892,273.631 183,300.5C 180.943,287.951 179.276,275.285 178,262.5C 175.297,259.629 172.464,256.962 169.5,254.5C 170.914,252.402 170.248,251.402 167.5,251.5C 167.67,250.178 167.337,249.011 166.5,248C 167.108,247.13 167.941,246.63 169,246.5C 170.855,247.663 172.189,249.33 173,251.5C 173.333,251.167 173.667,250.833 174,250.5C 175.113,251.305 176.279,251.972 177.5,252.5C 178.374,254.69 180.041,255.69 182.5,255.5C 183.388,258.243 184.555,260.91 186,263.5C 187.109,272.796 187.776,282.13 188,291.5C 188.667,292.167 189.333,292.833 190,293.5C 190.947,299.176 192.781,304.51 195.5,309.5C 195.291,310.086 194.957,310.586 194.5,311C 197.543,312.055 200.543,312.222 203.5,311.5C 204.97,307.54 204.47,303.873 202,300.5C 201.333,298.5 201.333,296.5 202,294.5C 205.709,290.825 209.376,287.158 213,283.5C 213.154,279.902 214.154,276.569 216,273.5C 221.155,270.916 225.821,267.583 230,263.5C 229.611,256.349 231.944,250.349 237,245.5C 238.59,240.98 237.09,237.48 232.5,235C 229.937,233.921 227.271,233.421 224.5,233.5C 217.842,232.338 212.176,229.338 207.5,224.5C 206.833,222.833 206.167,221.167 205.5,219.5C 205.131,217.559 204.464,215.725 203.5,214C 197.391,210.875 191.058,208.375 184.5,206.5C 182.443,207.822 180.61,207.489 179,205.5C 177.437,206.102 177.604,206.935 179.5,208C 177.406,209.352 175.073,209.852 172.5,209.5C 172.244,214.196 170.911,218.529 168.5,222.5C 167.548,220.955 167.215,219.288 167.5,217.5C 163.024,217.17 160.857,214.837 161,210.5C 163.124,209.378 164.957,207.878 166.5,206C 165.023,203.429 163.023,202.929 160.5,204.5C 159.121,200.434 157.788,196.434 156.5,192.5C 158.527,192.338 160.527,192.505 162.5,193C 160.842,193.725 160.342,194.892 161,196.5C 161.417,195.244 162.25,194.577 163.5,194.5C 163.351,195.552 163.517,196.552 164,197.5C 167.203,198.77 169.87,200.77 172,203.5C 184.153,199.797 195.653,201.297 206.5,208C 210.721,213.464 215.388,218.464 220.5,223C 225.852,224.836 231.185,226.67 236.5,228.5C 243.623,232.427 246.123,238.427 244,246.5C 241.943,249.721 240.109,253.054 238.5,256.5C 238.443,257.609 238.11,258.609 237.5,259.5C 236.759,263.172 235.593,266.839 234,270.5C 229.813,273.782 225.479,276.782 221,279.5C 218.744,286.747 214.577,292.581 208.5,297C 209.78,303.494 212.113,309.494 215.5,315C 249.997,325.105 282.664,320.938 313.5,302.5C 313.162,304.854 312.662,307.187 312,309.5C 310.951,308.483 309.784,308.316 308.5,309C 304.33,312.833 305.33,314.667 311.5,314.5C 307.356,317.568 302.689,319.568 297.5,320.5C 295.847,320.66 294.514,321.326 293.5,322.5C 254.716,335.621 217.716,331.955 182.5,311.5C 182.027,310.094 181.027,309.427 179.5,309.5C 177.147,308.66 175.147,307.326 173.5,305.5C 173.027,304.094 172.027,303.427 170.5,303.5C 169.833,303.5 169.5,303.167 169.5,302.5C 168.738,300.738 167.404,299.738 165.5,299.5C 151.861,288.53 141.195,275.196 133.5,259.5C 133.715,257.821 133.048,256.821 131.5,256.5C 131.5,256.167 131.5,255.833 131.5,255.5C 131.771,253.62 131.104,252.287 129.5,251.5C 117.956,224.917 115.622,197.583 122.5,169.5C 124.541,169.146 126.374,169.146 128,169.5C 128.333,168.833 128.667,168.167 129,167.5C 129.979,175.456 132.646,182.79 137,189.5C 137.495,191.473 137.662,193.473 137.5,195.5C 136.448,195.649 135.448,195.483 134.5,195C 133.897,192.929 132.564,191.762 130.5,191.5 Z"/></g>
<g><path style="opacity:1" fill="#719a72" d="M 169.5,225.5 C 169.147,230.723 169.647,236.056 171,241.5C 173.823,242.329 175.657,244.162 176.5,247C 178.218,247.346 179.885,247.846 181.5,248.5C 183.189,251.891 185.356,254.891 188,257.5C 189,267.5 190,277.5 191,287.5C 192.492,292.555 194.159,297.555 196,302.5C 197.342,303.902 198.176,303.569 198.5,301.5C 196.679,296.55 197.346,292.05 200.5,288C 202.345,286.872 204.345,286.372 206.5,286.5C 202.803,288.692 200.47,291.859 199.5,296C 200.062,300.92 201.396,305.587 203.5,310C 201.24,310.044 199.24,309.211 197.5,307.5C 195.413,304.327 193.579,300.994 192,297.5C 189.544,284.558 187.544,271.558 186,258.5C 183.932,254.93 181.099,252.263 177.5,250.5C 175.205,247.703 172.705,245.036 170,242.5C 165.592,236.813 165.425,231.146 169.5,225.5 Z"/></g>
<g><path style="opacity:1" fill="#8cb6b9" d="M 130.5,191.5 C 133.238,197.721 137.905,201.888 144.5,204C 150.148,209.825 156.481,214.659 163.5,218.5C 154.764,232.168 156.764,244.168 169.5,254.5C 172.464,256.962 175.297,259.629 178,262.5C 179.276,275.285 180.943,287.951 183,300.5C 144.892,273.631 127.392,237.298 130.5,191.5 Z"/></g>
<g><path style="opacity:1" fill="#16261a" d="M 224.5,233.5 C 227.271,233.421 229.937,233.921 232.5,235C 237.09,237.48 238.59,240.98 237,245.5C 231.944,250.349 229.611,256.349 230,263.5C 225.821,267.583 221.155,270.916 216,273.5C 214.154,276.569 213.154,279.902 213,283.5C 209.376,287.158 205.709,290.825 202,294.5C 201.333,296.5 201.333,298.5 202,300.5C 204.47,303.873 204.97,307.54 203.5,311.5C 200.543,312.222 197.543,312.055 194.5,311C 194.957,310.586 195.291,310.086 195.5,309.5C 192.781,304.51 190.947,299.176 190,293.5C 189.333,292.833 188.667,292.167 188,291.5C 187.776,282.13 187.109,272.796 186,263.5C 184.555,260.91 183.388,258.243 182.5,255.5C 180.041,255.69 178.374,254.69 177.5,252.5C 177.5,251.833 177.5,251.167 177.5,250.5C 181.099,252.263 183.932,254.93 186,258.5C 187.544,271.558 189.544,284.558 192,297.5C 193.579,300.994 195.413,304.327 197.5,307.5C 199.24,309.211 201.24,310.044 203.5,310C 201.396,305.587 200.062,300.92 199.5,296C 200.47,291.859 202.803,288.692 206.5,286.5C 208.451,285.284 209.951,283.618 211,281.5C 212.829,273.502 217.662,268.168 225.5,265.5C 227.722,262.173 228.888,258.506 229,254.5C 230.746,250.673 232.746,247.007 235,243.5C 235.798,241.741 235.631,240.074 234.5,238.5C 231.343,236.255 228.009,234.588 224.5,233.5 Z"/></g>
<g><path style="opacity:1" fill="#69a269" d="M 207.5,224.5 C 212.176,229.338 217.842,232.338 224.5,233.5C 228.009,234.588 231.343,236.255 234.5,238.5C 235.631,240.074 235.798,241.741 235,243.5C 232.746,247.007 230.746,250.673 229,254.5C 228.888,258.506 227.722,262.173 225.5,265.5C 217.662,268.168 212.829,273.502 211,281.5C 209.951,283.618 208.451,285.284 206.5,286.5C 204.345,286.372 202.345,286.872 200.5,288C 197.346,292.05 196.679,296.55 198.5,301.5C 198.176,303.569 197.342,303.902 196,302.5C 194.159,297.555 192.492,292.555 191,287.5C 190,277.5 189,267.5 188,257.5C 185.356,254.891 183.189,251.891 181.5,248.5C 179.885,247.846 178.218,247.346 176.5,247C 175.657,244.162 173.823,242.329 171,241.5C 169.647,236.056 169.147,230.723 169.5,225.5C 171.017,225.489 172.184,224.823 173,223.5C 174.904,220.077 175.737,216.41 175.5,212.5C 181.509,212.334 187.509,212.501 193.5,213C 195.377,215.106 197.71,216.439 200.5,217C 202.511,219.902 204.844,222.402 207.5,224.5 Z"/></g>
<g><path style="opacity:1" fill="#749c76" d="M 205.5,219.5 C 206.167,221.167 206.833,222.833 207.5,224.5C 204.844,222.402 202.511,219.902 200.5,217C 197.71,216.439 195.377,215.106 193.5,213C 187.509,212.501 181.509,212.334 175.5,212.5C 175.737,216.41 174.904,220.077 173,223.5C 172.184,224.823 171.017,225.489 169.5,225.5C 172.857,221.45 174.524,216.783 174.5,211.5C 177.483,211.102 180.483,210.768 183.5,210.5C 192.49,209.668 199.823,212.668 205.5,219.5 Z"/></g>
<g><path style="opacity:0.153" fill="#acacac" d="M 179.5,309.5 C 181.027,309.427 182.027,310.094 182.5,311.5C 180.973,311.573 179.973,310.906 179.5,309.5 Z"/></g>
<g><path style="opacity:0.004" fill="#fefffe" d="M 134.5,311.5 C 135.833,312.167 135.833,312.167 134.5,311.5 Z"/></g>
<g><path style="opacity:0.122" fill="#999c9a" d="M 297.5,320.5 C 296.713,322.104 295.38,322.771 293.5,322.5C 294.514,321.326 295.847,320.66 297.5,320.5 Z"/></g>
<g><path style="opacity:1" fill="#272a2c" d="M 330.5,316.5 C 343.837,316.333 357.171,316.5 370.5,317C 374.054,319.655 374.387,322.655 371.5,326C 357.167,326.667 342.833,326.667 328.5,326C 326.937,322.314 327.604,319.147 330.5,316.5 Z"/></g>
<g><path style="opacity:0.004" fill="#fefffe" d="M 484.5,329.5 C 485.833,330.167 485.833,330.167 484.5,329.5 Z"/></g>
<g><path style="opacity:0.004" fill="#fefffe" d="M 11.5,332.5 C 12.8333,333.167 12.8333,333.167 11.5,332.5 Z"/></g>
<g><path style="opacity:0.004" fill="#fefffe" d="M 154.5,334.5 C 155.833,335.167 155.833,335.167 154.5,334.5 Z"/></g>
<g><path style="opacity:0.004" fill="#fefffe" d="M 485.5,334.5 C 486.833,335.167 486.833,335.167 485.5,334.5 Z"/></g>
<g><path style="opacity:0.004" fill="#fefffe" d="M 256.5,338.5 C 257.833,339.167 257.833,339.167 256.5,338.5 Z"/></g>
<g><path style="opacity:0.004" fill="#fefffe" d="M 391.5,344.5 C 392.833,345.167 392.833,345.167 391.5,344.5 Z"/></g>
<g><path style="opacity:0.004" fill="#fefffe" d="M 216.5,355.5 C 217.833,356.167 217.833,356.167 216.5,355.5 Z"/></g>
<g><path style="opacity:0.999" fill="#242729" d="M 240.5,368.5 C 241.906,368.027 242.573,367.027 242.5,365.5C 245.626,361.762 249.626,359.262 254.5,358C 275.382,352.818 289.215,360.318 296,380.5C 296.667,387.833 296.667,395.167 296,402.5C 294.768,407.463 292.602,411.963 289.5,416C 290.982,417.983 292.649,419.816 294.5,421.5C 295.112,425.943 293.112,428.943 288.5,430.5C 285.257,428.765 282.423,426.432 280,423.5C 264.749,430.521 251.415,427.855 240,415.5C 235.566,407.929 233.732,399.762 234.5,391C 233.387,382.529 235.387,375.029 240.5,368.5 Z M 272.5,369.5 C 272.973,370.906 273.973,371.573 275.5,371.5C 282.115,379.644 284.282,388.978 282,399.5C 281.64,401.421 280.806,403.088 279.5,404.5C 274.135,396.413 269.135,396.579 264.5,405C 266.291,407.961 268.291,410.795 270.5,413.5C 263.415,415.907 257.248,414.24 252,408.5C 248.164,398.798 247.497,388.798 250,378.5C 251.666,376.004 253.5,373.671 255.5,371.5C 257.027,371.573 258.027,370.906 258.5,369.5C 263.167,368.167 267.833,368.167 272.5,369.5 Z"/></g>
<g><path style="opacity:0.004" fill="#fefffe" d="M 353.5,358.5 C 354.833,359.167 354.833,359.167 353.5,358.5 Z"/></g>
<g><path style="opacity:0.004" fill="#fefffe" d="M 342.5,359.5 C 343.833,360.167 343.833,360.167 342.5,359.5 Z"/></g>
<g><path style="opacity:1" fill="#242729" d="M 174.5,419.5 C 176.104,418.713 176.771,417.38 176.5,415.5C 182.054,396.61 188.221,377.943 195,359.5C 199.271,357.504 203.771,357.004 208.5,358C 209.931,358.465 211.097,359.299 212,360.5C 218.036,379.333 224.37,398 231,416.5C 231.995,419.126 232.328,421.793 232,424.5C 227.882,425.798 223.715,425.798 219.5,424.5C 217.637,420.245 215.97,415.912 214.5,411.5C 206.833,410.167 199.167,410.167 191.5,411.5C 189.935,416.113 188.268,420.613 186.5,425C 182.5,425.667 178.5,425.667 174.5,425C 173.248,423.172 173.248,421.339 174.5,419.5 Z M 202.5,377.5 C 205.586,384.147 207.919,391.147 209.5,398.5C 204.821,398.666 200.155,398.499 195.5,398C 198.367,391.37 200.701,384.537 202.5,377.5 Z"/></g>
<g><path style="opacity:0.004" fill="#fefffe" d="M 90.5,361.5 C 91.8333,362.167 91.8333,362.167 90.5,361.5 Z"/></g>
<g><path style="opacity:0.004" fill="#fefffe" d="M 380.5,365.5 C 381.833,366.167 381.833,366.167 380.5,365.5 Z"/></g>
<g><path style="opacity:0.004" fill="#fefffe" d="M 19.5,366.5 C 20.8333,367.167 20.8333,367.167 19.5,366.5 Z"/></g>
<g><path style="opacity:0.004" fill="#fefffe" d="M 180.5,366.5 C 181.833,367.167 181.833,367.167 180.5,366.5 Z"/></g>
<g><path style="opacity:0.224" fill="#c1c1c1" d="M 242.5,365.5 C 242.573,367.027 241.906,368.027 240.5,368.5C 240.427,366.973 241.094,365.973 242.5,365.5 Z"/></g>
<g><path style="opacity:1" fill="#2c3032" d="M 309.5,357.5 C 312.518,357.335 315.518,357.502 318.5,358C 319,358.5 319.5,359 320,359.5C 320.827,381.406 320.66,403.24 319.5,425C 315.245,425.796 311.079,425.629 307,424.5C 306.167,402.826 306.334,381.159 307.5,359.5C 308.522,359.145 309.189,358.478 309.5,357.5 Z"/></g>
<g><path style="opacity:0.004" fill="#fefffe" d="M 89.5,370.5 C 90.8333,371.167 90.8333,371.167 89.5,370.5 Z"/></g>
<g><path style="opacity:0.004" fill="#bdbaba" d="M 258.5,369.5 C 258.027,370.906 257.027,371.573 255.5,371.5C 255.973,370.094 256.973,369.427 258.5,369.5 Z"/></g>
<g><path style="opacity:0.098" fill="#9b9b9b" d="M 272.5,369.5 C 274.027,369.427 275.027,370.094 275.5,371.5C 273.973,371.573 272.973,370.906 272.5,369.5 Z"/></g>
<g><path style="opacity:0.004" fill="#fefffe" d="M 411.5,376.5 C 412.833,377.167 412.833,377.167 411.5,376.5 Z"/></g>
<g><path style="opacity:0.004" fill="#fefffe" d="M 56.5,392.5 C 57.8333,393.167 57.8333,393.167 56.5,392.5 Z"/></g>
<g><path style="opacity:0.004" fill="#fefffe" d="M 444.5,394.5 C 445.833,395.167 445.833,395.167 444.5,394.5 Z"/></g>
<g><path style="opacity:0.004" fill="#fefffe" d="M 17.5,409.5 C 18.8333,410.167 18.8333,410.167 17.5,409.5 Z"/></g>
<g><path style="opacity:0.004" fill="#fefffe" d="M 117.5,410.5 C 118.833,411.167 118.833,411.167 117.5,410.5 Z"/></g>
<g><path style="opacity:0.157" fill="#9c9c9c" d="M 176.5,415.5 C 176.771,417.38 176.104,418.713 174.5,419.5C 174.66,417.847 175.326,416.514 176.5,415.5 Z"/></g>
<g><path style="opacity:0.004" fill="#fefffe" d="M 259.5,432.5 C 260.833,433.167 260.833,433.167 259.5,432.5 Z"/></g>
<g><path style="opacity:0.004" fill="#fefffe" d="M 329.5,437.5 C 330.833,438.167 330.833,438.167 329.5,437.5 Z"/></g>
<g><path style="opacity:0.004" fill="#fefffe" d="M 16.5,451.5 C 17.8333,452.167 17.8333,452.167 16.5,451.5 Z"/></g>
<g><path style="opacity:0.004" fill="#fefffe" d="M 440.5,459.5 C 441.833,460.167 441.833,460.167 440.5,459.5 Z"/></g>
<g><path style="opacity:0.004" fill="#fefffe" d="M 379.5,465.5 C 380.833,466.167 380.833,466.167 379.5,465.5 Z"/></g>
<g><path style="opacity:0.004" fill="#fefffe" d="M 352.5,481.5 C 353.833,482.167 353.833,482.167 352.5,481.5 Z"/></g>
<g><path style="opacity:0.004" fill="#fefffe" d="M 497.5,483.5 C 498.833,484.167 498.833,484.167 497.5,483.5 Z"/></g>
<g><path style="opacity:0.004" fill="#fefffe" d="M 259.5,487.5 C 260.833,488.167 260.833,488.167 259.5,487.5 Z"/></g>
<g><path style="opacity:0.004" fill="#fefffe" d="M 147.5,489.5 C 148.833,490.167 148.833,490.167 147.5,489.5 Z"/></g>
<g><path style="opacity:0.004" fill="#fefffe" d="M 490.5,494.5 C 491.833,495.167 491.833,495.167 490.5,494.5 Z"/></g>
<g><path style="opacity:0.004" fill="#fefffe" d="M 85.5,497.5 C 86.8333,498.167 86.8333,498.167 85.5,497.5 Z"/></g>
</svg>
