<?xml version="1.0" encoding="UTF-8"?>
<!DOCTYPE svg PUBLIC "-//W3C//DTD SVG 1.1//EN" "http://www.w3.org/Graphics/SVG/1.1/DTD/svg11.dtd">
<svg xmlns="http://www.w3.org/2000/svg" version="1.1" width="500px" height="500px" style="shape-rendering:geometricPrecision; text-rendering:geometricPrecision; image-rendering:optimizeQuality; fill-rule:evenodd; clip-rule:evenodd" xmlns:xlink="http://www.w3.org/1999/xlink">
<g><path style="opacity:0.004" fill="#fefffe" d="M 456.5,-0.5 C 456.833,-0.5 457.167,-0.5 457.5,-0.5C 457.315,0.170143 456.981,0.170143 456.5,-0.5 Z"/></g>
<g><path style="opacity:0.004" fill="#fefffe" d="M 383.5,0.5 C 384.833,1.16667 384.833,1.16667 383.5,0.5 Z"/></g>
<g><path style="opacity:0.004" fill="#fefffe" d="M 267.5,2.5 C 268.833,3.16667 268.833,3.16667 267.5,2.5 Z"/></g>
<g><path style="opacity:0.004" fill="#fefffe" d="M 53.5,20.5 C 54.8333,21.1667 54.8333,21.1667 53.5,20.5 Z"/></g>
<g><path style="opacity:0.004" fill="#fefffe" d="M 428.5,27.5 C 429.833,28.1667 429.833,28.1667 428.5,27.5 Z"/></g>
<g><path style="opacity:0.004" fill="#fefffe" d="M 477.5,28.5 C 478.833,29.1667 478.833,29.1667 477.5,28.5 Z"/></g>
<g><path style="opacity:0.004" fill="#fefffe" d="M 10.5,32.5 C 11.8333,33.1667 11.8333,33.1667 10.5,32.5 Z"/></g>
<g><path style="opacity:0.004" fill="#fefffe" d="M 27.5,35.5 C 28.8333,36.1667 28.8333,36.1667 27.5,35.5 Z"/></g>
<g><path style="opacity:0.004" fill="#fefffe" d="M 44.5,41.5 C 45.8333,42.1667 45.8333,42.1667 44.5,41.5 Z"/></g>
<g><path style="opacity:0.004" fill="#fefffe" d="M 350.5,45.5 C 351.833,46.1667 351.833,46.1667 350.5,45.5 Z"/></g>
<g><path style="opacity:0.004" fill="#fefffe" d="M 393.5,52.5 C 394.833,53.1667 394.833,53.1667 393.5,52.5 Z"/></g>
<g><path style="opacity:1" fill="#2c3031" d="M 246.5,52.5 C 249.97,51.8748 252.804,52.8748 255,55.5C 255.667,67.1667 255.667,78.8333 255,90.5C 251.618,94.7697 247.951,95.103 244,91.5C 243.333,79.1667 243.333,66.8333 244,54.5C 244.995,53.9341 245.828,53.2674 246.5,52.5 Z"/></g>
<g><path style="opacity:0.004" fill="#fefffe" d="M 224.5,57.5 C 225.833,58.1667 225.833,58.1667 224.5,57.5 Z"/></g>
<g><path style="opacity:0.004" fill="#fefffe" d="M 430.5,57.5 C 431.833,58.1667 431.833,58.1667 430.5,57.5 Z"/></g>
<g><path style="opacity:0.004" fill="#fefffe" d="M 238.5,71.5 C 239.833,72.1667 239.833,72.1667 238.5,71.5 Z"/></g>
<g><path style="opacity:0.004" fill="#fefffe" d="M 417.5,78.5 C 418.833,79.1667 418.833,79.1667 417.5,78.5 Z"/></g>
<g><path style="opacity:0.408" fill="#848585" d="M 309.5,78.5 C 306.212,78.0156 303.545,79.0156 301.5,81.5C 301.511,79.9826 302.177,78.8159 303.5,78C 305.712,77.2109 307.712,77.3775 309.5,78.5 Z"/></g>
<g><path style="opacity:1" fill="#272929" d="M 309.5,78.5 C 313.63,80.4027 314.463,83.4027 312,87.5C 309.412,91.674 307.079,96.0074 305,100.5C 302.661,105.256 299.161,106.423 294.5,104C 293.056,102.874 292.39,101.374 292.5,99.5C 295.125,93.28 298.125,87.28 301.5,81.5C 303.545,79.0156 306.212,78.0156 309.5,78.5 Z"/></g>
<g><path style="opacity:1" fill="#2a2d2c" d="M 187.5,77.5 C 191.29,76.8992 194.456,77.8992 197,80.5C 200.6,86.9788 203.766,93.6455 206.5,100.5C 203.282,106.02 199.282,106.686 194.5,102.5C 191.926,97.0172 189.092,91.6838 186,86.5C 185.212,83.2281 185.712,80.2281 187.5,77.5 Z"/></g>
<g><path style="opacity:0.004" fill="#fefffe" d="M 285.5,97.5 C 286.833,98.1667 286.833,98.1667 285.5,97.5 Z"/></g>
<g><path style="opacity:0.004" fill="#fefffe" d="M 18.5,102.5 C 19.8333,103.167 19.8333,103.167 18.5,102.5 Z"/></g>
<g><path style="opacity:0.004" fill="#fefffe" d="M 386.5,106.5 C 387.833,107.167 387.833,107.167 386.5,106.5 Z"/></g>
<g><path style="opacity:0.004" fill="#fefffe" d="M 335.5,108.5 C 336.833,109.167 336.833,109.167 335.5,108.5 Z"/></g>
<g><path style="opacity:0.004" fill="#fefffe" d="M 406.5,112.5 C 407.833,113.167 407.833,113.167 406.5,112.5 Z"/></g>
<g><path style="opacity:0.316" fill="#929295" d="M 358.5,115.5 C 355.763,115.401 353.096,115.735 350.5,116.5C 351.492,114.974 352.992,114.307 355,114.5C 356.385,114.514 357.551,114.848 358.5,115.5 Z"/></g>
<g><path style="opacity:1" fill="#272a2b" d="M 358.5,115.5 C 359.117,115.611 359.617,115.944 360,116.5C 360.667,118.833 360.667,121.167 360,123.5C 354.431,128.035 348.597,132.201 342.5,136C 339.717,136.963 337.05,138.13 334.5,139.5C 328.234,138.275 326.568,134.942 329.5,129.5C 336.388,124.894 343.388,120.561 350.5,116.5C 353.096,115.735 355.763,115.401 358.5,115.5 Z"/></g>
<g><path style="opacity:0.004" fill="#fefffe" d="M 312.5,126.5 C 313.833,127.167 313.833,127.167 312.5,126.5 Z"/></g>
<g><path style="opacity:1" fill="#282b2b" d="M 163.5,139.5 C 163.027,138.094 162.027,137.427 160.5,137.5C 152.423,133.377 144.923,128.377 138,122.5C 137.122,117.693 139.122,114.693 144,113.5C 152.826,118.385 161.326,123.718 169.5,129.5C 172.005,135.645 170.005,138.979 163.5,139.5 Z"/></g>
<g><path style="opacity:0.004" fill="#fefffe" d="M 371.5,130.5 C 372.833,131.167 372.833,131.167 371.5,130.5 Z"/></g>
<g><path style="opacity:0.004" fill="#fefffe" d="M 126.5,132.5 C 127.833,133.167 127.833,133.167 126.5,132.5 Z"/></g>
<g><path style="opacity:0.004" fill="#fefffe" d="M 408.5,132.5 C 409.833,133.167 409.833,133.167 408.5,132.5 Z"/></g>
<g><path style="opacity:0.004" fill="#fefffe" d="M 491.5,137.5 C 492.833,138.167 492.833,138.167 491.5,137.5 Z"/></g>
<g><path style="opacity:0.004" fill="#dedede" d="M 160.5,137.5 C 162.027,137.427 163.027,138.094 163.5,139.5C 161.973,139.573 160.973,138.906 160.5,137.5 Z"/></g>
<g><path style="opacity:0.004" fill="#fefffe" d="M 406.5,138.5 C 407.833,139.167 407.833,139.167 406.5,138.5 Z"/></g>
<g><path style="opacity:0.004" fill="#fefffe" d="M 350.5,139.5 C 351.833,140.167 351.833,140.167 350.5,139.5 Z"/></g>
<g><path style="opacity:0.302" fill="#949597" d="M 180.5,139.5 C 180.573,141.027 179.906,142.027 178.5,142.5C 178.427,140.973 179.094,139.973 180.5,139.5 Z"/></g>
<g><path style="opacity:0.004" fill="#fefffe" d="M 357.5,147.5 C 358.833,148.167 358.833,148.167 357.5,147.5 Z"/></g>
<g><path style="opacity:0.004" fill="#fefffe" d="M 378.5,149.5 C 379.833,150.167 379.833,150.167 378.5,149.5 Z"/></g>
<g><path style="opacity:0.004" fill="#fefffe" d="M 10.5,151.5 C 11.8333,152.167 11.8333,152.167 10.5,151.5 Z"/></g>
<g><path style="opacity:0.004" fill="#fefffe" d="M 30.5,153.5 C 31.8333,154.167 31.8333,154.167 30.5,153.5 Z"/></g>
<g><path style="opacity:0.004" fill="#fefffe" d="M 433.5,163.5 C 434.833,164.167 434.833,164.167 433.5,163.5 Z"/></g>
<g><path style="opacity:0.999" fill="#232727" d="M 126.5,174.5 C 133.719,174.538 140.719,174.538 147.5,174.5C 154.478,174.798 156.644,178.131 154,184.5C 153.25,185.126 152.416,185.626 151.5,186C 142.5,186.667 133.5,186.667 124.5,186C 119.997,181.024 120.664,177.19 126.5,174.5 Z"/></g>
<g><path style="opacity:0.999" fill="#232728" d="M 348.5,174.5 C 355.818,175.817 362.985,175.817 370,174.5C 375.13,174.95 377.13,177.617 376,182.5C 375.5,184.333 374.333,185.5 372.5,186C 364.167,186.667 355.833,186.667 347.5,186C 343.47,183.713 342.636,180.546 345,176.5C 346.302,175.915 347.469,175.249 348.5,174.5 Z"/></g>
<g><path style="opacity:0.004" fill="#fefffe" d="M 442.5,187.5 C 443.833,188.167 443.833,188.167 442.5,187.5 Z"/></g>
<g><path style="opacity:0.004" fill="#fefffe" d="M 100.5,193.5 C 101.833,194.167 101.833,194.167 100.5,193.5 Z"/></g>
<g><path style="opacity:0.004" fill="#fefffe" d="M 483.5,202.5 C 484.833,203.167 484.833,203.167 483.5,202.5 Z"/></g>
<g><path style="opacity:0.004" fill="#fefffe" d="M 37.5,205.5 C 38.8333,206.167 38.8333,206.167 37.5,205.5 Z"/></g>
<g><path style="opacity:0.004" fill="#fefffe" d="M 30.5,209.5 C 31.8333,210.167 31.8333,210.167 30.5,209.5 Z"/></g>
<g><path style="opacity:0.004" fill="#fefffe" d="M 59.5,209.5 C 60.8333,210.167 60.8333,210.167 59.5,209.5 Z"/></g>
<g><path style="opacity:0.31" fill="#b9bab9" d="M 168.5,208.5 C 170.213,209.635 170.88,211.302 170.5,213.5C 169.463,212.07 168.796,210.403 168.5,208.5 Z"/></g>
<g><path style="opacity:0.004" fill="#fefffe" d="M 28.5,212.5 C 29.8333,213.167 29.8333,213.167 28.5,212.5 Z"/></g>
<g><path style="opacity:0.004" fill="#fefffe" d="M 436.5,232.5 C 437.833,233.167 437.833,233.167 436.5,232.5 Z"/></g>
<g><path style="opacity:1" fill="#252829" d="M 104.5,211.5 C 113.594,212.645 122.76,212.645 132,211.5C 143.375,216.626 146.708,224.96 142,236.5C 139.787,239.476 136.953,241.642 133.5,243C 115.742,243.972 98.0757,243.639 80.5,242C 78.1792,238.877 78.5125,235.877 81.5,233C 97.8333,232.667 114.167,232.333 130.5,232C 134.5,229 134.5,226 130.5,223C 120.453,222.809 110.453,222.309 100.5,221.5C 98.3192,216.539 99.6525,213.206 104.5,211.5 Z"/></g>
<g><path style="opacity:0.004" fill="#fefffe" d="M 350.5,237.5 C 351.833,238.167 351.833,238.167 350.5,237.5 Z"/></g>
<g><path style="opacity:1" fill="#2b2f2f" d="M 163.5,235.5 C 167.776,235.162 170.776,237.162 172.5,241.5C 171.902,242.795 171.402,244.128 171,245.5C 164.417,250.423 157.583,254.923 150.5,259C 142.633,260.964 139.633,258.131 141.5,250.5C 149.106,245.11 156.439,240.11 163.5,235.5 Z"/></g>
<g><path style="opacity:0.004" fill="#fefffe" d="M 488.5,242.5 C 489.833,243.167 489.833,243.167 488.5,242.5 Z"/></g>
<g><path style="opacity:0.004" fill="#fefffe" d="M 34.5,244.5 C 35.8333,245.167 35.8333,245.167 34.5,244.5 Z"/></g>
<g><path style="opacity:1" fill="#282c2c" d="M 331.5,235.5 C 334.325,235.081 336.491,236.081 338,238.5C 338.333,238.167 338.667,237.833 339,237.5C 344.421,242.086 350.255,246.086 356.5,249.5C 358.571,251.93 358.904,254.597 357.5,257.5C 354.775,259.429 351.775,259.929 348.5,259C 341.854,254.681 335.187,250.347 328.5,246C 325.356,241.268 326.356,237.768 331.5,235.5 Z"/></g>
<g><path style="opacity:0.004" fill="#fefffe" d="M 432.5,253.5 C 433.833,254.167 433.833,254.167 432.5,253.5 Z"/></g>
<g><path style="opacity:1" fill="#252827" d="M 208.5,259.5 C 208.027,258.094 207.027,257.427 205.5,257.5C 188.258,247.259 176.591,232.592 170.5,213.5C 170.88,211.302 170.213,209.635 168.5,208.5C 162.784,185.182 166.117,163.182 178.5,142.5C 179.906,142.027 180.573,141.027 180.5,139.5C 199.814,111.795 226.48,99.9621 260.5,104C 297.965,110.784 321.465,132.951 331,170.5C 335.772,209.78 321.605,239.947 288.5,261C 261.019,273.514 234.352,273.014 208.5,259.5 Z"/></g>
<g><path style="opacity:1" fill="#dfc165" d="M 200.5,239.5 C 202.937,239.886 204.937,241.053 206.5,243C 208.856,243.155 211.189,243.155 213.5,243C 216.001,244.418 215.668,245.418 212.5,246C 216.755,250.708 222.088,252.708 228.5,252C 230.708,253.602 233.041,254.936 235.5,256C 249.798,257.372 263.798,256.205 277.5,252.5C 249.052,264.288 223.386,259.955 200.5,239.5 Z"/></g>
<g><path style="opacity:1" fill="#302c16" d="M 313.5,154.5 C 314.833,154.5 316.167,154.5 317.5,154.5C 317.952,160.108 319.286,165.441 321.5,170.5C 323.303,171.137 324.636,172.303 325.5,174C 324.552,174.483 323.552,174.649 322.5,174.5C 323.808,189.722 321.641,204.388 316,218.5C 315.124,220.635 313.624,221.969 311.5,222.5C 320.874,204.069 323.041,184.735 318,164.5C 316.76,161.022 315.26,157.689 313.5,154.5 Z"/></g>
<g><path style="opacity:1" fill="#e2c366" d="M 287.5,125.5 C 299.037,132.698 307.704,142.365 313.5,154.5C 315.26,157.689 316.76,161.022 318,164.5C 323.041,184.735 320.874,204.069 311.5,222.5C 309.853,225.473 307.853,228.14 305.5,230.5C 306.219,228.236 306.552,225.903 306.5,223.5C 307.5,223.5 308.5,223.5 309.5,223.5C 312.784,216.407 315.618,208.407 318,199.5C 318.667,191.167 318.667,182.833 318,174.5C 316.844,175.993 316.01,175.826 315.5,174C 317.588,167.755 316.422,162.255 312,157.5C 311.941,154.178 310.774,151.344 308.5,149C 307.552,148.517 306.552,148.351 305.5,148.5C 303.59,140.085 298.59,134.252 290.5,131C 288.826,129.494 287.826,127.661 287.5,125.5 Z"/></g>
<g><path style="opacity:1" fill="#dabb60" d="M 180.5,165.5 C 179.336,183.796 181.002,201.796 185.5,219.5C 178.85,205.349 176.35,190.349 178,174.5C 178.66,171.322 179.493,168.322 180.5,165.5 Z"/></g>
<g><path style="opacity:1" fill="#d8c069" d="M 234.5,115.5 C 231.578,117.531 228.245,118.698 224.5,119C 221.523,121.378 218.19,122.878 214.5,123.5C 218.995,120.217 223.995,117.884 229.5,116.5C 231.042,115.699 232.708,115.366 234.5,115.5 Z"/></g>
<g><path style="opacity:1" fill="#f1c44e" d="M 234.5,115.5 C 235.167,115.5 235.833,115.5 236.5,115.5C 248.96,115.138 261.294,116.138 273.5,118.5C 278.588,120.079 283.254,122.412 287.5,125.5C 287.826,127.661 288.826,129.494 290.5,131C 298.59,134.252 303.59,140.085 305.5,148.5C 306.552,148.351 307.552,148.517 308.5,149C 310.774,151.344 311.941,154.178 312,157.5C 316.422,162.255 317.588,167.755 315.5,174C 316.01,175.826 316.844,175.993 318,174.5C 318.667,182.833 318.667,191.167 318,199.5C 315.618,208.407 312.784,216.407 309.5,223.5C 308.5,223.5 307.5,223.5 306.5,223.5C 306.552,225.903 306.219,228.236 305.5,230.5C 298.486,240.854 289.153,248.187 277.5,252.5C 263.798,256.205 249.798,257.372 235.5,256C 233.041,254.936 230.708,253.602 228.5,252C 222.088,252.708 216.755,250.708 212.5,246C 215.668,245.418 216.001,244.418 213.5,243C 211.189,243.155 208.856,243.155 206.5,243C 204.937,241.053 202.937,239.886 200.5,239.5C 194.052,233.945 189.052,227.279 185.5,219.5C 181.002,201.796 179.336,183.796 180.5,165.5C 185.949,146.719 197.283,132.719 214.5,123.5C 218.19,122.878 221.523,121.378 224.5,119C 228.245,118.698 231.578,117.531 234.5,115.5 Z"/></g>
<g><path style="opacity:1" fill="#ddc378" d="M 236.5,115.5 C 242.645,114.51 248.978,114.177 255.5,114.5C 261.809,114.99 267.809,116.323 273.5,118.5C 261.294,116.138 248.96,115.138 236.5,115.5 Z"/></g>
<g><path style="opacity:1" fill="#41371a" d="M 255.5,114.5 C 248.978,114.177 242.645,114.51 236.5,115.5C 235.833,115.5 235.167,115.5 234.5,115.5C 232.708,115.366 231.042,115.699 229.5,116.5C 229.389,115.883 229.056,115.383 228.5,115C 237.628,113.346 246.628,113.18 255.5,114.5 Z"/></g>
<g><path style="opacity:0.059" fill="#cdcdcd" d="M 205.5,257.5 C 207.027,257.427 208.027,258.094 208.5,259.5C 206.973,259.573 205.973,258.906 205.5,257.5 Z"/></g>
<g><path style="opacity:0.004" fill="#fefffe" d="M 58.5,267.5 C 59.8333,268.167 59.8333,268.167 58.5,267.5 Z"/></g>
<g><path style="opacity:0.004" fill="#fefffe" d="M 427.5,267.5 C 428.833,268.167 428.833,268.167 427.5,267.5 Z"/></g>
<g><path style="opacity:0.004" fill="#fefffe" d="M 225.5,268.5 C 226.833,269.167 226.833,269.167 225.5,268.5 Z"/></g>
<g><path style="opacity:0.698" fill="#48494b" d="M 398.5,273.5 C 389.009,274.33 379.342,274.83 369.5,275C 368.956,275.717 368.289,276.217 367.5,276.5C 367.284,274.319 368.117,272.653 370,271.5C 379.237,273.457 388.737,274.124 398.5,273.5 Z"/></g>
<g><path style="opacity:0.004" fill="#fefffe" d="M 88.5,275.5 C 89.8333,276.167 89.8333,276.167 88.5,275.5 Z"/></g>
<g><path style="opacity:0.004" fill="#fefffe" d="M 26.5,276.5 C 27.8333,277.167 27.8333,277.167 26.5,276.5 Z"/></g>
<g><path style="opacity:1" fill="#2a2d2d" d="M 295.5,269.5 C 299.286,269.393 302.286,270.893 304.5,274C 304.167,274.333 303.833,274.667 303.5,275C 307.192,280.551 310.192,286.385 312.5,292.5C 310.039,299.186 306.373,300.186 301.5,295.5C 298.426,289.777 295.26,284.111 292,278.5C 290.98,274.553 292.147,271.553 295.5,269.5 Z"/></g>
<g><path style="opacity:1" fill="#2b2e2f" d="M 197.5,269.5 C 199.314,269.772 201.314,269.939 203.5,270C 205.414,271.413 206.747,273.247 207.5,275.5C 204.447,282.168 201.114,288.668 197.5,295C 194.405,299.438 191.071,299.605 187.5,295.5C 186.269,292.462 186.436,289.462 188,286.5C 191.7,281.097 194.867,275.43 197.5,269.5 Z"/></g>
<g><path style="opacity:0.004" fill="#fefffe" d="M 86.5,284.5 C 87.8333,285.167 87.8333,285.167 86.5,284.5 Z"/></g>
<g><path style="opacity:1" fill="#292c2d" d="M 398.5,273.5 C 388.737,274.124 379.237,273.457 370,271.5C 368.117,272.653 367.284,274.319 367.5,276.5C 365.119,278.524 364.952,280.857 367,283.5C 368.785,284.24 370.618,284.907 372.5,285.5C 386.772,284.953 401.105,284.786 415.5,285C 419.032,288.39 419.366,292.057 416.5,296C 399.5,296.667 382.5,296.667 365.5,296C 362.798,294.988 360.465,293.488 358.5,291.5C 351.989,279.787 354.656,270.621 366.5,264C 376.833,263.333 387.167,263.333 397.5,264C 401.908,266.908 402.242,270.075 398.5,273.5 Z"/></g>
<g><path style="opacity:0.004" fill="#fefffe" d="M 458.5,288.5 C 459.833,289.167 459.833,289.167 458.5,288.5 Z"/></g>
<g><path style="opacity:0.004" fill="#fefffe" d="M 358.5,291.5 C 357.833,292.167 357.833,292.167 358.5,291.5 Z"/></g>
<g><path style="opacity:0.004" fill="#fefffe" d="M 145.5,302.5 C 146.833,303.167 146.833,303.167 145.5,302.5 Z"/></g>
<g><path style="opacity:0.004" fill="#fefffe" d="M 21.5,303.5 C 22.8333,304.167 22.8333,304.167 21.5,303.5 Z"/></g>
<g><path style="opacity:1" fill="#2b2f30" d="M 247.5,280.5 C 250.617,280.642 253.117,281.976 255,284.5C 255.667,296.833 255.667,309.167 255,321.5C 251.513,325.802 247.846,326.135 244,322.5C 243.333,309.5 243.333,296.5 244,283.5C 245.145,282.364 246.312,281.364 247.5,280.5 Z"/></g>
<g><path style="opacity:0.168" fill="#b4b5b5" d="M 394.5,304.5 C 374.787,304.191 355.121,304.524 335.5,305.5C 335.611,304.883 335.944,304.383 336.5,304C 356.004,303.171 375.338,303.338 394.5,304.5 Z"/></g>
<g><path style="opacity:0.004" fill="#fefffe" d="M 61.5,307.5 C 62.8333,308.167 62.8333,308.167 61.5,307.5 Z"/></g>
<g><path style="opacity:0.004" fill="#fefffe" d="M 460.5,307.5 C 461.833,308.167 461.833,308.167 460.5,307.5 Z"/></g>
<g><path style="opacity:0.004" fill="#fefffe" d="M 416.5,308.5 C 417.833,309.167 417.833,309.167 416.5,308.5 Z"/></g>
<g><path style="opacity:1" fill="#1f2425" d="M 394.5,304.5 C 398.473,307.54 398.473,310.706 394.5,314C 375.167,314.667 355.833,314.667 336.5,314C 333.189,311.319 332.855,308.485 335.5,305.5C 355.121,304.524 374.787,304.191 394.5,304.5 Z"/></g>
<g><path style="opacity:0.004" fill="#fefffe" d="M 435.5,314.5 C 436.833,315.167 436.833,315.167 435.5,314.5 Z"/></g>
<g><path style="opacity:0.004" fill="#fefffe" d="M 130.5,318.5 C 131.833,319.167 131.833,319.167 130.5,318.5 Z"/></g>
<g><path style="opacity:0.004" fill="#fefffe" d="M 119.5,319.5 C 120.833,320.167 120.833,320.167 119.5,319.5 Z"/></g>
<g><path style="opacity:0.004" fill="#fefffe" d="M 280.5,320.5 C 281.833,321.167 281.833,321.167 280.5,320.5 Z"/></g>
<g><path style="opacity:0.004" fill="#fefffe" d="M 329.5,321.5 C 330.833,322.167 330.833,322.167 329.5,321.5 Z"/></g>
<g><path style="opacity:0.004" fill="#fefffe" d="M 442.5,321.5 C 443.833,322.167 443.833,322.167 442.5,321.5 Z"/></g>
<g><path style="opacity:0.004" fill="#fefffe" d="M 396.5,337.5 C 397.833,338.167 397.833,338.167 396.5,337.5 Z"/></g>
<g><path style="opacity:0.004" fill="#fefffe" d="M 126.5,339.5 C 127.833,340.167 127.833,340.167 126.5,339.5 Z"/></g>
<g><path style="opacity:0.004" fill="#fefffe" d="M 239.5,339.5 C 240.833,340.167 240.833,340.167 239.5,339.5 Z"/></g>
<g><path style="opacity:0.004" fill="#fefffe" d="M 335.5,349.5 C 336.833,350.167 336.833,350.167 335.5,349.5 Z"/></g>
<g><path style="opacity:0.004" fill="#fefffe" d="M 491.5,350.5 C 492.833,351.167 492.833,351.167 491.5,350.5 Z"/></g>
<g><path style="opacity:0.004" fill="#fefffe" d="M 420.5,353.5 C 421.833,354.167 421.833,354.167 420.5,353.5 Z"/></g>
<g><path style="opacity:0.004" fill="#fefffe" d="M 86.5,360.5 C 87.8333,361.167 87.8333,361.167 86.5,360.5 Z"/></g>
<g><path style="opacity:0.004" fill="#fefffe" d="M 84.5,361.5 C 85.8333,362.167 85.8333,362.167 84.5,361.5 Z"/></g>
<g><path style="opacity:0.004" fill="#fefffe" d="M 258.5,363.5 C 259.833,364.167 259.833,364.167 258.5,363.5 Z"/></g>
<g><path style="opacity:0.004" fill="#fefffe" d="M 213.5,364.5 C 214.833,365.167 214.833,365.167 213.5,364.5 Z"/></g>
<g><path style="opacity:0.004" fill="#fefffe" d="M 120.5,367.5 C 121.833,368.167 121.833,368.167 120.5,367.5 Z"/></g>
<g><path style="opacity:0.004" fill="#fefffe" d="M 98.5,373.5 C 99.8333,374.167 99.8333,374.167 98.5,373.5 Z"/></g>
<g><path style="opacity:0.004" fill="#fefffe" d="M 410.5,373.5 C 411.833,374.167 411.833,374.167 410.5,373.5 Z"/></g>
<g><path style="opacity:0.004" fill="#fefffe" d="M 1.5,374.5 C 2.83333,375.167 2.83333,375.167 1.5,374.5 Z"/></g>
<g><path style="opacity:0.004" fill="#fefffe" d="M 496.5,375.5 C 497.833,376.167 497.833,376.167 496.5,375.5 Z"/></g>
<g><path style="opacity:0.004" fill="#fefffe" d="M 24.5,376.5 C 25.8333,377.167 25.8333,377.167 24.5,376.5 Z"/></g>
<g><path style="opacity:0.004" fill="#fefffe" d="M 476.5,378.5 C 477.833,379.167 477.833,379.167 476.5,378.5 Z"/></g>
<g><path style="opacity:0.004" fill="#fefffe" d="M 195.5,381.5 C 196.833,382.167 196.833,382.167 195.5,381.5 Z"/></g>
<g><path style="opacity:0.004" fill="#fefffe" d="M 362.5,383.5 C 363.833,384.167 363.833,384.167 362.5,383.5 Z"/></g>
<g><path style="opacity:0.004" fill="#fefffe" d="M 28.5,395.5 C 29.8333,396.167 29.8333,396.167 28.5,395.5 Z"/></g>
<g><path style="opacity:0.004" fill="#fefffe" d="M 470.5,400.5 C 471.833,401.167 471.833,401.167 470.5,400.5 Z"/></g>
<g><path style="opacity:0.004" fill="#fefffe" d="M 103.5,405.5 C 104.833,406.167 104.833,406.167 103.5,405.5 Z"/></g>
<g><path style="opacity:0.004" fill="#fefffe" d="M 224.5,405.5 C 225.833,406.167 225.833,406.167 224.5,405.5 Z"/></g>
<g><path style="opacity:0.004" fill="#fefffe" d="M 431.5,406.5 C 432.833,407.167 432.833,407.167 431.5,406.5 Z"/></g>
<g><path style="opacity:0.004" fill="#fefffe" d="M 467.5,406.5 C 468.833,407.167 468.833,407.167 467.5,406.5 Z"/></g>
<g><path style="opacity:0.004" fill="#fefffe" d="M 353.5,415.5 C 354.833,416.167 354.833,416.167 353.5,415.5 Z"/></g>
<g><path style="opacity:0.004" fill="#fefffe" d="M 327.5,418.5 C 328.833,419.167 328.833,419.167 327.5,418.5 Z"/></g>
<g><path style="opacity:0.004" fill="#fefffe" d="M 119.5,419.5 C 120.833,420.167 120.833,420.167 119.5,419.5 Z"/></g>
<g><path style="opacity:0.004" fill="#fefffe" d="M 368.5,419.5 C 369.833,420.167 369.833,420.167 368.5,419.5 Z"/></g>
<g><path style="opacity:0.004" fill="#fefffe" d="M 144.5,421.5 C 145.833,422.167 145.833,422.167 144.5,421.5 Z"/></g>
<g><path style="opacity:0.004" fill="#fefffe" d="M 301.5,422.5 C 302.833,423.167 302.833,423.167 301.5,422.5 Z"/></g>
<g><path style="opacity:0.004" fill="#fefffe" d="M 495.5,424.5 C 496.833,425.167 496.833,425.167 495.5,424.5 Z"/></g>
<g><path style="opacity:0.004" fill="#fefffe" d="M 471.5,425.5 C 472.833,426.167 472.833,426.167 471.5,425.5 Z"/></g>
<g><path style="opacity:0.004" fill="#fefffe" d="M 328.5,431.5 C 329.833,432.167 329.833,432.167 328.5,431.5 Z"/></g>
<g><path style="opacity:0.004" fill="#fefffe" d="M 336.5,434.5 C 337.833,435.167 337.833,435.167 336.5,434.5 Z"/></g>
<g><path style="opacity:0.004" fill="#fefffe" d="M 62.5,448.5 C 63.8333,449.167 63.8333,449.167 62.5,448.5 Z"/></g>
<g><path style="opacity:0.004" fill="#fefffe" d="M 435.5,451.5 C 436.833,452.167 436.833,452.167 435.5,451.5 Z"/></g>
<g><path style="opacity:0.004" fill="#fefffe" d="M 51.5,452.5 C 52.8333,453.167 52.8333,453.167 51.5,452.5 Z"/></g>
<g><path style="opacity:0.004" fill="#fefffe" d="M 406.5,453.5 C 407.833,454.167 407.833,454.167 406.5,453.5 Z"/></g>
<g><path style="opacity:0.004" fill="#fefffe" d="M 265.5,455.5 C 266.833,456.167 266.833,456.167 265.5,455.5 Z"/></g>
<g><path style="opacity:0.004" fill="#fefffe" d="M 449.5,460.5 C 450.833,461.167 450.833,461.167 449.5,460.5 Z"/></g>
<g><path style="opacity:0.004" fill="#fefffe" d="M 5.5,470.5 C 6.83333,471.167 6.83333,471.167 5.5,470.5 Z"/></g>
<g><path style="opacity:0.004" fill="#fefffe" d="M 275.5,475.5 C 276.833,476.167 276.833,476.167 275.5,475.5 Z"/></g>
<g><path style="opacity:0.004" fill="#fefffe" d="M 431.5,478.5 C 432.833,479.167 432.833,479.167 431.5,478.5 Z"/></g>
<g><path style="opacity:0.004" fill="#fefffe" d="M 349.5,481.5 C 350.833,482.167 350.833,482.167 349.5,481.5 Z"/></g>
<g><path style="opacity:0.004" fill="#fefffe" d="M 437.5,482.5 C 438.833,483.167 438.833,483.167 437.5,482.5 Z"/></g>
<g><path style="opacity:0.004" fill="#fefffe" d="M 356.5,487.5 C 357.833,488.167 357.833,488.167 356.5,487.5 Z"/></g>
<g><path style="opacity:0.004" fill="#fefffe" d="M 383.5,487.5 C 384.833,488.167 384.833,488.167 383.5,487.5 Z"/></g>
<g><path style="opacity:0.004" fill="#fefffe" d="M 69.5,489.5 C 70.8333,490.167 70.8333,490.167 69.5,489.5 Z"/></g>
<g><path style="opacity:0.004" fill="#fefffe" d="M 191.5,493.5 C 192.833,494.167 192.833,494.167 191.5,493.5 Z"/></g>
</svg>
